<svg width="433" height="239" viewBox="0 0 433 239" fill="none" xmlns="http://www.w3.org/2000/svg">
<rect width="433" height="239" rx="20" fill="#263271"/>
<g clip-path="url(#clip0)">
<path opacity="0.1" d="M314.65 104.345C314.65 104.481 314.65 104.618 314.65 104.752C314.626 107.111 314.487 109.463 314.232 111.809C314.233 111.823 314.233 111.837 314.232 111.851C314.212 112.046 314.189 112.239 314.167 112.434C314.129 112.764 314.089 113.091 314.044 113.42C313.522 117.431 312.659 121.39 311.463 125.253C309.861 130.474 307.597 135.467 304.726 140.11C303.842 141.53 302.902 142.904 301.903 144.232C301.371 144.936 300.827 145.624 300.265 146.301C299.871 146.775 299.469 147.241 299.061 147.7L298.805 147.982C296.654 150.348 294.335 152.555 291.867 154.586C287.838 157.93 283.5 160.84 279.093 163.538C278.842 163.693 278.589 163.845 278.336 163.987C278.319 163.999 278.3 164.011 278.28 164.02C272.291 167.647 266.079 170.92 259.68 173.54C252.674 176.416 245.44 178.507 238.018 179.422C227.672 180.695 217.202 179.659 206.919 177.88C198.367 176.408 189.919 174.386 181.626 171.827L180.261 171.399C179.553 171.174 178.847 170.944 178.141 170.709C173.878 169.297 169.662 167.728 165.495 166.002C155.027 161.684 145.028 156.307 135.652 149.955C134.458 149.151 133.281 148.329 132.122 147.489C130.501 146.321 128.9 145.118 127.318 143.88L126.342 143.123C122.203 139.877 118.325 136.31 114.744 132.455C109.927 127.206 105.811 121.284 103.104 114.523C102.678 113.461 102.287 112.378 101.932 111.275L101.898 111.165C101.719 110.605 101.553 110.045 101.401 109.462C101.177 108.628 100.981 107.784 100.812 106.929C100.777 106.765 100.745 106.602 100.716 106.436C100.181 103.559 99.9449 100.635 100.011 97.7096C100.067 95.1466 100.367 92.5946 100.906 90.0885C101.459 87.4906 102.31 84.9655 103.442 82.5638C104.466 80.4041 105.77 78.3895 107.321 76.5722C108.411 75.3017 109.637 74.1546 110.977 73.1517C113.405 71.3405 116.098 70.0786 118.889 69.0811C120.201 68.6104 121.53 68.1979 122.866 67.8146C123.813 67.5412 124.764 67.2812 125.711 67.0256L128.505 66.2702C130.295 65.7816 132.086 65.2795 133.85 64.737C138.658 63.2666 143.369 61.4868 147.727 58.8329C148.417 58.4137 149.119 57.9542 149.822 57.4611C150.717 56.838 151.599 56.161 152.472 55.4303C153.354 54.6906 154.218 53.8993 155.042 53.061C155.169 52.931 155.295 52.801 155.42 52.6687C156.092 51.9604 156.743 51.2185 157.347 50.4474C157.643 50.0708 157.929 49.6875 158.202 49.2975C158.581 48.7573 158.939 48.2081 159.27 47.6433C160.931 44.819 161.956 41.7033 161.835 38.4195C161.817 37.8784 161.769 37.3388 161.69 36.8033C161.399 34.8241 161.119 32.8919 160.913 31.0023C160.049 23.1862 160.414 16.0985 166.271 9.43898C173.555 1.16108 184.986 -0.526777 195.392 0.134468C225.477 2.03975 252.864 19.2411 276.933 39.7195C279.014 41.4888 281.071 43.282 283.102 45.0992C283.613 45.5564 284.126 46.0167 284.639 46.4799C288.444 49.9117 292.191 53.4712 295.681 57.284C295.963 57.5933 296.245 57.9027 296.522 58.2142C296.693 58.407 296.865 58.5975 297.033 58.7925C298.121 60.0254 299.176 61.2881 300.2 62.5807C302.942 66.0123 305.364 69.6889 307.434 73.5641C310.604 79.6458 312.751 86.2097 313.786 92.9913C314.176 95.454 314.432 97.936 314.554 100.426C314.592 101.159 314.617 101.895 314.63 102.628C314.63 102.863 314.63 103.096 314.63 103.331C314.653 103.672 314.653 104.004 314.65 104.345Z" fill="white"/>
<path d="M188.185 100.586L184.603 164.422L188.185 164.469L191.094 99.689L188.185 100.586Z" fill="#3F3D56"/>
<path d="M174.978 132.928H130.66V142.567H174.978V132.928Z" fill="#394AA5"/>
<path d="M177.888 141.444V147.496H132.108C130.488 146.327 128.887 145.124 127.305 143.887V141.444H177.888Z" fill="#3F3D56"/>
<path d="M187.029 127.67C186.904 128.25 186.741 128.824 186.568 129.396C186.06 131.048 185.449 132.677 185.331 134.394C185.172 136.663 185.778 139.301 184.211 140.948C183.809 141.374 183.283 141.693 182.922 142.148C182.867 142.219 182.816 142.294 182.77 142.372C182.448 142.905 182.41 143.555 182.405 144.165C182.409 145.465 182.493 146.764 182.658 148.054C183.189 152.492 184.236 156.939 182.86 161.129C182.61 161.855 182.319 162.567 181.989 163.26C181.317 164.74 180.585 166.199 180.366 167.802C180.205 168.99 180.254 170.214 180.245 171.422C179.538 171.196 178.831 170.966 178.126 170.731C173.862 169.319 169.647 167.75 165.479 166.024C165.49 165.964 165.502 165.901 165.51 165.84C165.831 163.845 165.392 161.806 164.859 159.86C163.74 155.738 162.155 151.656 161.217 147.505C160.84 145.883 160.592 144.234 160.477 142.574C160.45 142.201 160.434 141.827 160.432 141.453C160.421 140.964 160.432 140.475 160.452 139.982C160.499 138.998 160.541 137.83 159.756 137.232C159.324 136.907 158.753 136.851 158.249 136.654C157.278 136.275 156.613 135.396 155.843 134.692C155.476 134.336 155.028 134.074 154.537 133.929C154.046 133.785 153.527 133.762 153.025 133.863C147.994 135.017 144.296 139.292 139.613 141.453C139.432 141.538 139.251 141.619 139.067 141.695C138.462 141.917 137.885 142.212 137.35 142.574C136.975 142.835 136.702 143.219 136.58 143.661C136.462 144.136 136.565 144.633 136.623 145.122C136.717 145.917 136.683 146.721 136.522 147.505C136.462 147.809 136.382 148.108 136.283 148.401C136.104 148.933 135.864 149.453 135.636 149.97C134.442 149.167 133.266 148.345 132.106 147.505C130.486 146.336 128.884 145.133 127.303 143.896L126.343 143.123C122.203 139.877 118.325 136.31 114.744 132.455C115.22 131.11 115.91 129.86 116.241 128.481C116.429 127.69 116.498 126.867 116.758 126.098C117.058 125.301 117.474 124.553 117.994 123.879C119.897 121.221 122.221 118.892 124.874 116.984C127.647 114.994 130.85 113.398 133.346 111.139C134.359 110.251 135.232 109.215 135.936 108.065C135.978 107.996 136.019 107.922 136.054 107.841C136.249 107.436 136.384 107.004 136.455 106.559C136.634 105.555 136.607 104.452 136.697 103.488C139.737 104.015 142.837 104.109 145.903 103.766C149.473 103.365 152.965 102.372 156.535 101.987C156.803 101.955 157.074 101.93 157.345 101.908C158.489 101.816 159.635 101.796 160.783 101.809C161.743 101.809 162.704 101.852 163.664 101.883L174.235 102.242C175.406 102.282 176.601 102.327 177.691 102.755C178.985 103.264 180.021 104.277 180.852 105.391C180.957 105.535 181.062 105.678 181.161 105.826C181.844 106.824 182.392 107.909 182.79 109.052C182.833 109.168 182.873 109.276 182.911 109.404C183.012 109.715 183.099 110.029 183.177 110.347C183.238 110.596 183.292 110.845 183.341 111.096C183.587 112.338 183.732 113.606 184.122 114.806C184.149 114.893 184.178 114.981 184.209 115.066C184.677 116.379 185.454 117.556 186.04 118.818C186.463 119.732 186.786 120.688 187.003 121.671C187.441 123.646 187.45 125.692 187.029 127.67Z" fill="#35323E"/>
<path d="M154.897 47.4527C153.952 46.6995 152.582 47.2509 151.476 47.7373C150.549 48.1474 149.595 48.4927 148.62 48.7707C148.421 48.8476 148.205 48.87 147.994 48.8357C147.546 48.7281 147.358 48.1969 147.024 47.8741C146.445 47.3159 145.496 47.4482 144.748 47.7508C144 48.0534 143.262 48.4905 142.461 48.4232C141.605 48.356 140.862 47.7239 139.998 47.7037C138.476 47.6679 137.198 49.5462 135.759 49.0486C134.882 48.746 134.192 47.6029 133.328 47.9279C132.657 48.1834 132.596 49.1136 132.191 49.7211C131.714 50.4294 130.786 50.6289 129.991 50.9427C127.486 51.9335 125.828 54.7286 126.155 57.405C126.336 58.8821 127.05 60.236 127.522 61.6459C128.923 65.7456 128.442 70.3699 130.208 74.3239C130.432 74.1132 130.557 74.0347 130.774 73.8263C130.216 74.986 130.108 76.3123 130.472 77.5472C130.658 78.1681 130.96 78.7464 131.188 79.3539C131.426 80.0352 131.617 80.7316 131.761 81.4385L133.709 90.0414C134.47 93.4036 135.233 96.7659 135.365 100.209C135.447 102.448 135.276 104.688 134.855 106.889C138.382 106.304 141.61 104.737 145.185 104.757C146.496 104.757 147.797 104.981 149.097 105.16C152.889 105.692 156.713 105.952 160.541 105.938C161.137 105.972 161.733 105.888 162.296 105.692C162.789 105.481 163.192 105.107 163.657 104.835C164.568 104.297 165.672 104.163 166.721 104.163C171.509 104.075 176.122 105.831 180.879 106.449C182.757 102.502 182.869 97.7723 181.427 93.6457C181 92.4196 180.424 91.2249 180.254 89.936C180.186 89.1437 180.168 88.3479 180.2 87.5533C180.193 85.5191 179.827 83.5022 179.119 81.5954C178.842 80.8489 178.508 80.0891 178.537 79.2933C178.566 78.4976 178.958 77.7557 179.343 77.0518C180.124 75.6173 180.91 74.1692 182.013 72.9588C183.144 71.7081 184.558 70.7554 185.957 69.8207L189.411 67.4985C188.939 64.5106 188.33 61.3635 187.065 58.6154C185.801 55.8673 183.909 53.3411 181.351 51.734C180.488 51.2143 179.586 50.7646 178.652 50.3891C177.344 49.8376 175.984 49.3512 174.567 49.2683C172.955 49.1764 171.368 49.609 169.777 49.878C164.767 50.723 158.872 50.6199 154.897 47.4527Z" fill="#394AA5"/>
<path d="M192.661 99.3033L191.018 101.381L187.92 105.297L184.339 109.823L183.338 111.087H181.398L133.344 111.143L103.25 111.177H101.907C101.728 110.616 101.562 110.056 101.41 109.473C101.186 108.639 100.99 107.795 100.821 106.94C100.786 106.776 100.754 106.613 100.725 106.447L111.644 99.2988L115.749 99.2764L128.305 99.2046L135.318 99.1643H136.598H137.402L142.075 99.1396L177.696 98.9357L179.518 98.9245H180.308L182.401 98.9132L190.188 98.8684L191.683 98.2991L191.792 98.4156L192.661 99.3033Z" fill="#3F3D56"/>
<path d="M191.989 98.1826L191.804 98.4067L190.582 99.848L188.066 102.822L182.79 109.052L136.054 107.857L100.812 106.96C100.777 106.797 100.745 106.633 100.716 106.467C100.181 103.591 99.9449 100.666 100.011 97.741L103.919 95.7371L104.814 95.2753L111.782 91.6889L117.897 88.5508L133.847 90.6264L137.379 91.0859L138.978 91.2921L141.317 91.597L141.514 91.6239L178.193 96.3871L182.246 96.9139L184.625 97.2232L191.958 98.1781L191.989 98.1826Z" fill="#504F60"/>
<path d="M184.379 108.942L184.341 109.823L184.117 114.797L182.913 142.143L182.658 148.054L181.987 163.26L181.608 171.85L180.243 171.422C179.536 171.196 178.829 170.966 178.123 170.731L181.398 111.107L181.467 109.856L182.909 109.408L184.379 108.942Z" fill="#3F3D56"/>
<path d="M103.353 108.877L103.252 111.179L103.104 114.541C102.678 113.479 102.287 112.396 101.932 111.293L101.898 111.183C101.719 110.623 101.553 110.063 101.401 109.48L103.353 108.877Z" fill="#3F3D56"/>
<path d="M161.885 74.9852C167.571 74.9852 172.181 68.7631 172.181 61.0878C172.181 53.4125 167.571 47.1904 161.885 47.1904C156.198 47.1904 151.588 53.4125 151.588 61.0878C151.588 68.7631 156.198 74.9852 161.885 74.9852Z" fill="#A1616A"/>
<path opacity="0.1" d="M161.885 74.9852C167.571 74.9852 172.181 68.7631 172.181 61.0878C172.181 53.4125 167.571 47.1904 161.885 47.1904C156.198 47.1904 151.588 53.4125 151.588 61.0878C151.588 68.7631 156.198 74.9852 161.885 74.9852Z" fill="black"/>
<path d="M163.339 67.0278C171.251 67.0278 177.664 60.605 177.664 52.6821C177.664 44.7592 171.251 38.3364 163.339 38.3364C155.428 38.3364 149.014 44.7592 149.014 52.6821C149.014 60.605 155.428 67.0278 163.339 67.0278Z" fill="#A1616A"/>
<path d="M163.624 30.5719C162.749 30.6418 161.881 30.7744 161.025 30.9687C158.76 31.5201 156.801 32.744 154.894 33.9454C154.039 34.4856 153.16 35.0482 152.629 35.8417C151.676 37.2651 152.045 39.0762 151.51 40.6565C151.232 41.4679 150.722 42.1964 150.29 42.9518C149.101 45.023 148.479 47.2981 147.868 49.5508C147.743 50.017 147.707 50.6491 148.215 50.8285C148.508 50.8893 148.812 50.8548 149.084 50.7298C150.688 50.1986 152.728 50.0462 153.918 51.1243C155.109 52.2025 155.008 54.1145 156.425 54.9349C158.048 55.8831 160.582 54.7377 162.055 55.8562C162.686 56.3359 162.914 57.1047 163.431 57.683C164.635 59.0279 166.952 58.9629 168.879 58.6917C169.985 58.5348 171.341 58.4294 172.013 59.2072C172.335 59.5748 172.427 60.0792 172.801 60.4109C173.472 61.0116 174.701 60.7068 175.357 60.0904C176.013 59.474 176.326 58.6401 176.872 57.9475C177.935 56.6026 179.804 55.8696 180.901 54.5404C181.819 53.4197 182.096 52.0165 182.347 50.6626L183.28 45.6439C183.659 43.6086 184.003 41.385 182.859 39.5918C182.452 38.9462 181.868 38.3903 181.517 37.7224C181.281 37.2741 181.149 36.8011 180.876 36.3775C180.553 35.9361 180.166 35.5449 179.728 35.2164L177.519 33.385C176.764 32.7229 175.956 32.1232 175.104 31.5918C171.95 29.7515 167.227 30.2357 163.624 30.5719Z" fill="#464353"/>
<path d="M116.44 67.5256C115.91 68.0905 115.42 68.7002 114.851 69.2292C114.351 69.6746 113.828 70.0935 113.284 70.4844C112.407 71.1419 111.549 71.8226 110.71 72.5264C109.835 73.2191 109.044 74.0112 108.351 74.8867C107.156 76.4939 106.59 78.4933 105.47 80.1543C104.481 81.6269 103.087 82.7903 102.082 84.2518C101.641 84.8662 101.313 85.5548 101.115 86.2848C100.967 86.9914 100.9 87.7126 100.916 88.4344C100.895 89.6179 100.877 90.8149 101.119 91.9738C101.361 93.1326 101.891 94.2713 102.8 95.0312C103.644 95.7373 104.734 96.0623 105.802 96.3313C106.352 96.468 106.948 96.5958 107.472 96.3783C107.855 96.1845 108.187 95.9035 108.443 95.5579L111.167 92.4198C112.989 90.3128 114.883 88.161 117.383 86.9281C118.166 86.5448 118.992 86.2557 119.778 85.8836C123.108 84.2764 125.463 80.9859 126.376 77.3995C126.6 76.523 126.743 75.6287 126.889 74.7343L127.283 72.2821C127.313 72.1592 127.313 72.0307 127.283 71.9078C127.221 71.7695 127.122 71.6515 126.996 71.567C125.099 70.0325 123.322 68.3539 121.682 66.5461C121.293 66.1157 120.928 65.5262 120.478 65.1653C119.914 64.717 119.957 64.7506 119.279 65.1653C118.235 65.8268 117.281 66.6201 116.44 67.5256Z" fill="#A1616A"/>
<path d="M135.074 83.8437C135.051 83.7916 135.019 83.7447 134.977 83.7057C134.936 83.6667 134.887 83.6364 134.834 83.6167C134.781 83.597 134.724 83.5883 134.668 83.5911C134.611 83.5939 134.556 83.6081 134.505 83.6328C134.454 83.6576 134.408 83.6925 134.371 83.7353C134.334 83.7782 134.305 83.8281 134.288 83.8821C134.271 83.9362 134.264 83.9932 134.269 84.0497C134.274 84.1063 134.291 84.1612 134.318 84.2113L134.094 84.3211L140.768 98.0212L141.975 97.4317L135.3 83.7226L135.074 83.8437Z" fill="#3F3D56"/>
<path opacity="0.04" d="M116.44 67.5256C115.91 68.0905 115.42 68.7002 114.851 69.2292C114.351 69.6746 113.828 70.0935 113.284 70.4844C112.407 71.1419 111.549 71.8226 110.71 72.5264C109.835 73.2191 109.044 74.0112 108.351 74.8867C107.156 76.4939 106.59 78.4933 105.47 80.1543C104.481 81.6269 103.087 82.7903 102.082 84.2518C101.641 84.8662 101.313 85.5548 101.115 86.2848C100.967 86.9914 100.9 87.7126 100.916 88.4344C100.895 89.6179 100.877 90.8149 101.119 91.9738C101.361 93.1326 101.891 94.2713 102.8 95.0312C103.644 95.7373 104.734 96.0623 105.802 96.3313C106.352 96.468 106.948 96.5958 107.472 96.3783C107.855 96.1845 108.187 95.9035 108.443 95.5579L111.167 92.4198C112.989 90.3128 114.883 88.161 117.383 86.9281C118.166 86.5448 118.992 86.2557 119.778 85.8836C123.108 84.2764 125.463 80.9859 126.376 77.3995C126.6 76.523 126.743 75.6287 126.889 74.7343L127.283 72.2821C127.313 72.1592 127.313 72.0307 127.283 71.9078C127.221 71.7695 127.122 71.6515 126.996 71.567C125.099 70.0325 123.322 68.3539 121.682 66.5461C121.293 66.1157 120.928 65.5262 120.478 65.1653C119.914 64.717 119.957 64.7506 119.279 65.1653C118.235 65.8268 117.281 66.6201 116.44 67.5256Z" fill="white"/>
<path d="M193.603 92.7739C193.581 94.2039 193.525 95.6766 192.932 96.9812C192.677 97.546 192.281 98.1019 191.687 98.288C191.329 98.371 190.957 98.3847 190.593 98.3283C186.202 97.9418 181.777 98.2934 177.501 99.3684C178.643 97.082 177.987 94.3407 178.302 91.8033C178.39 91.1107 178.549 90.4292 178.609 89.7344C178.833 87.2687 177.779 84.8748 177.295 82.4405C176.876 80.3333 176.876 78.1639 177.295 76.0567C177.378 75.5143 177.564 74.9929 177.844 74.5213C178.171 74.0623 178.602 73.6869 179.102 73.4252C180.915 72.3918 183.052 72.273 185.089 72.4098C186.461 72.5017 189.212 72.3717 190.356 73.2167C191.607 74.1424 192.003 77.2514 192.341 78.6882C192.847 80.8918 193.191 83.1296 193.371 85.3836C193.59 87.8403 193.637 90.3082 193.603 92.7739Z" fill="#ECAFB8"/>
<path d="M113.425 97.7366L121.483 103.116L157.744 101.771L133.794 97.7366H113.425Z" fill="white"/>
<path d="M124.051 54.9931C122.728 56.1609 121.606 57.5372 120.353 58.7813C118.634 60.4893 116.68 61.9418 114.735 63.3876C115.432 63.5828 116.067 63.956 116.577 64.4708C117.087 64.9855 117.455 65.6241 117.645 66.3239C117.73 66.6534 117.772 66.9964 117.868 67.3192C118.092 68.0835 118.585 68.7425 119.113 69.3365C121.383 71.8986 124.559 73.7949 125.897 76.9577C125.941 77.1116 126.036 77.246 126.166 77.3387C126.275 77.387 126.396 77.4011 126.513 77.3791C127.724 77.2513 128.65 76.274 129.423 75.3236C131.034 73.3063 132.433 71.0782 133.228 68.617C134.022 66.1558 134.15 63.4346 133.284 60.9959C132.852 59.781 132.185 58.6647 131.522 57.5596C130.942 56.5928 130.363 55.6274 129.785 54.6636C129.483 54.1548 129.098 53.1214 128.505 52.8704C127.225 52.319 124.872 54.1705 124.051 54.9931Z" fill="#394AA5"/>
<path d="M189.977 69.4803L191.882 73.9633C189.808 73.2377 187.592 73.0168 185.416 73.3189C183.241 73.621 181.168 74.4373 179.37 75.7004C178.284 76.4782 177.288 77.4555 176.798 78.6973C176.556 78.7434 176.306 78.7201 176.077 78.63C175.848 78.54 175.648 78.387 175.502 78.1885C175.216 77.7861 175.049 77.3102 175.023 76.8167C174.846 75.0952 175.498 73.4074 176.142 71.798C176.442 71.0448 176.751 70.276 177.284 69.6641C177.816 69.0521 178.524 68.6487 179.231 68.2676C181.488 67.0179 183.851 65.9722 186.293 65.1429C187.323 64.809 188.401 64.8157 188.979 65.7795C189.648 66.9294 189.453 68.2564 189.977 69.4803Z" fill="#394AA5"/>
<path d="M113.472 82.9316C113.949 83.3126 114.368 83.7632 114.858 84.1263C115.376 84.4868 115.928 84.7968 116.505 85.052L118.712 86.1145C119.396 86.4705 120.112 86.7617 120.85 86.9842C121.794 87.2375 122.786 87.2622 123.735 87.4975C124.932 87.7934 126.027 88.4098 127.207 88.7662C128.386 89.1226 129.767 89.1809 130.752 88.439C131.368 87.975 131.833 87.2084 132.596 87.0941C133.089 87.029 133.563 87.2666 134.002 87.4975L139.746 90.5213C140.52 90.9293 141.339 91.3821 141.744 92.1599C142.149 92.9377 141.876 94.1189 141.024 94.3207C140.726 94.3549 140.427 94.3721 140.128 94.3722C139.833 94.4081 139.511 94.5829 139.47 94.8811C139.469 95.0662 139.517 95.2483 139.611 95.4078C139.869 95.9996 139.945 96.7079 139.645 97.2817C139.345 97.8555 138.608 98.2119 138.02 97.9542C138.121 98.8216 137.178 99.4291 136.339 99.66C134.221 100.241 131.976 99.8841 129.812 99.5165C128.961 99.373 128.097 99.2251 127.323 98.844C126.951 98.6625 126.607 98.4294 126.231 98.2613C125.199 97.8017 124.026 97.8623 122.898 97.8824C117.68 97.9743 112.508 97.006 107.378 96.0422C106.426 95.8628 105.448 95.6723 104.636 95.1456C103.069 94.1234 102.487 92.0254 102.744 90.1694C103.002 88.3134 103.942 86.6323 104.866 85.0005L106.064 82.8867C106.22 82.5629 106.439 82.2734 106.708 82.035C108.47 80.6878 111.964 81.7167 113.472 82.9316Z" fill="#A1616A"/>
<path opacity="0.04" d="M113.472 82.9316C113.949 83.3126 114.368 83.7632 114.858 84.1263C115.376 84.4868 115.928 84.7968 116.505 85.052L118.712 86.1145C119.396 86.4705 120.112 86.7617 120.85 86.9842C121.794 87.2375 122.786 87.2622 123.735 87.4975C124.932 87.7934 126.027 88.4098 127.207 88.7662C128.386 89.1226 129.767 89.1809 130.752 88.439C131.368 87.975 131.833 87.2084 132.596 87.0941C133.089 87.029 133.563 87.2666 134.002 87.4975L139.746 90.5213C140.52 90.9293 141.339 91.3821 141.744 92.1599C142.149 92.9377 141.876 94.1189 141.024 94.3207C140.726 94.3549 140.427 94.3721 140.128 94.3722C139.833 94.4081 139.511 94.5829 139.47 94.8811C139.469 95.0662 139.517 95.2483 139.611 95.4078C139.869 95.9996 139.945 96.7079 139.645 97.2817C139.345 97.8555 138.608 98.2119 138.02 97.9542C138.121 98.8216 137.178 99.4291 136.339 99.66C134.221 100.241 131.976 99.8841 129.812 99.5165C128.961 99.373 128.097 99.2251 127.323 98.844C126.951 98.6625 126.607 98.4294 126.231 98.2613C125.199 97.8017 124.026 97.8623 122.898 97.8824C117.68 97.9743 112.508 97.006 107.378 96.0422C106.426 95.8628 105.448 95.6723 104.636 95.1456C103.069 94.1234 102.487 92.0254 102.744 90.1694C103.002 88.3134 103.942 86.6323 104.866 85.0005L106.064 82.8867C106.22 82.5629 106.439 82.2734 106.708 82.035C108.47 80.6878 111.964 81.7167 113.472 82.9316Z" fill="white"/>
<path d="M181.799 86.8047C180.632 87.3562 179.294 87.41 178.076 87.8336C176.859 88.2572 175.825 89.0194 174.708 89.6403C171.798 91.2676 168.44 91.8818 165.143 92.4668C163.145 92.8254 161.115 93.1841 159.1 93.0989C156.374 92.9823 153.755 92.0723 151.114 91.3864C148.473 90.7005 145.655 90.2387 143.038 91.0098C141.672 91.4265 140.423 92.1597 139.392 93.15C138.362 94.1404 137.579 95.36 137.107 96.71C136.558 98.3216 136.482 100.059 136.587 101.758C137.138 102.164 137.908 101.601 138.208 100.985C138.508 100.368 138.671 99.6127 139.253 99.2541C140.263 99.597 140.509 100.944 141.341 101.61C141.861 102.027 142.555 102.137 143.215 102.231L146.617 102.715C147.436 102.832 148.388 102.91 148.981 102.332C149.269 102.051 149.428 101.659 149.693 101.359C150.234 100.758 151.138 100.655 151.944 100.736C154.46 100.987 156.819 102.621 159.317 102.233C160.177 102.101 160.976 101.733 161.795 101.444C166.65 99.7271 172.044 100.772 177.096 99.7876C179.023 99.4132 180.879 98.7498 182.712 98.0504C183.708 97.6716 184.715 97.2748 185.566 96.6338C186.372 96.0133 187.007 95.1982 187.413 94.2648C187.818 93.3313 187.98 92.3101 187.885 91.2967C187.697 89.7523 186.928 88.3379 185.734 87.3427C185.34 87.0065 184.823 86.3632 184.35 86.1525C183.448 85.7557 182.564 86.4439 181.799 86.8047Z" fill="#ECAFB8"/>
<g opacity="0.1">
<path opacity="0.1" d="M175.258 58.1694C174.885 57.8376 174.793 57.3333 174.47 56.9657C173.799 56.1879 172.443 56.2932 171.337 56.4501C169.41 56.7214 167.084 56.7841 165.889 55.4415C165.372 54.8631 165.143 54.0966 164.512 53.6146C163.039 52.4939 160.506 53.6415 158.883 52.6934C157.466 51.8663 157.558 49.9475 156.376 48.8828C155.194 47.8181 153.146 47.9571 151.541 48.4883C151.27 48.6132 150.965 48.6478 150.673 48.5869C150.165 48.4076 150.201 47.7755 150.326 47.3093C150.937 45.0565 151.559 42.7814 152.748 40.7102C153.18 39.9549 153.69 39.2264 153.968 38.4149C154.453 36.9938 154.205 35.3867 154.843 34.0417C154.158 34.4901 153.5 34.9787 153.077 35.6108C152.123 37.0342 152.493 38.8453 151.958 40.4256C151.68 41.237 151.17 41.9655 150.738 42.7209C149.549 44.792 148.927 47.0672 148.316 49.3199C148.191 49.7861 148.155 50.4182 148.663 50.5976C148.955 50.6584 149.26 50.6238 149.531 50.4989C151.136 49.9677 153.175 49.8153 154.366 50.8934C155.557 51.9716 155.456 53.8836 156.873 54.704C158.496 55.6522 161.029 54.5067 162.502 55.6253C163.133 56.1049 163.362 56.8738 163.879 57.4521C165.083 58.797 167.4 58.732 169.327 58.4608C170.433 58.3039 171.789 58.1985 172.46 58.9763C172.783 59.3439 172.875 59.8483 173.248 60.18C173.92 60.7807 175.149 60.4759 175.804 59.8595C176.225 59.421 176.585 58.9279 176.874 58.3935C176.292 58.5706 175.672 58.5437 175.258 58.1694Z" fill="black"/>
<path opacity="0.1" d="M179.336 55.7037C179.192 55.8897 179.059 56.0835 178.936 56.2843C179.795 55.6701 180.706 55.0963 181.349 54.314C181.515 54.1116 181.665 53.8956 181.796 53.6685C180.903 54.3095 179.972 54.899 179.336 55.7037Z" fill="black"/>
</g>
<path d="M224.557 100.09L225.228 164.421L228.362 163.973L227.69 100.09H224.557Z" fill="#3F3D56"/>
<path d="M243.358 111.746L244.03 176.077L247.164 175.629L246.492 111.746H243.358Z" fill="#3F3D56"/>
<path d="M301.897 144.243L301.883 143.008V142.273L301.765 130.958L301.579 113.268L301.547 111.741H298.414L298.429 113.212L298.528 122.687L298.571 126.789L298.606 130.111L298.665 135.853L298.7 139.24V139.599L298.747 144.051L298.788 147.975L299.043 147.693C299.453 147.234 299.855 146.768 300.247 146.294L301.897 144.243Z" fill="#3F3D56"/>
<path d="M239.889 122.169L238.098 124.85L239.889 137.064L255.109 141.235H279.731L294.503 142.13L301.541 137.306L300.323 129.021L294.951 122.169H239.889Z" fill="#394AA5"/>
<path d="M238.099 124.85L237.203 132.296C237.203 132.296 232.503 146.895 270.33 146.001C308.157 145.106 301.666 142.127 301.666 142.127L301.442 133.489C301.442 133.489 302.761 137.577 283.536 137.024C264.311 136.47 246.38 134.681 246.38 134.681C246.38 134.681 239.665 135.871 238.099 124.85Z" fill="#3F3D56"/>
<path d="M269.614 58.1065C267.456 59.0905 265.822 60.9981 264.727 63.1073C263.633 65.2166 263.017 67.5321 262.411 69.8319C261.771 72.2572 261.128 74.6892 260.797 77.1751C260.206 81.5953 260.649 86.242 262.677 90.2117C264.705 94.1814 268.452 97.3845 272.839 98.1489C274.533 98.447 276.275 98.3865 277.987 98.2094C281.082 97.8812 284.131 97.2083 287.077 96.2033C290.154 95.161 293.357 93.556 294.727 90.5995C295.522 88.8847 295.589 86.9301 295.551 85.0428C295.445 79.8987 294.67 74.7905 293.243 69.8476C292.829 68.413 292.348 66.9672 291.47 65.759C290.593 64.5509 289.393 63.6655 288.169 62.8451C282.934 59.3147 276.053 55.1746 269.614 58.1065Z" fill="#FBBEBE"/>
<path opacity="0.05" d="M269.614 58.1065C267.456 59.0905 265.822 60.9981 264.727 63.1073C263.633 65.2166 263.017 67.5321 262.411 69.8319C261.771 72.2572 261.128 74.6892 260.797 77.1751C260.206 81.5953 260.649 86.242 262.677 90.2117C264.705 94.1814 268.452 97.3845 272.839 98.1489C274.533 98.447 276.275 98.3865 277.987 98.2094C281.082 97.8812 284.131 97.2083 287.077 96.2033C290.154 95.161 293.357 93.556 294.727 90.5995C295.522 88.8847 295.589 86.9301 295.551 85.0428C295.445 79.8987 294.67 74.7905 293.243 69.8476C292.829 68.413 292.348 66.9672 291.47 65.759C290.593 64.5509 289.393 63.6655 288.169 62.8451C282.934 59.3147 276.053 55.1746 269.614 58.1065Z" fill="black"/>
<path d="M267.19 86.3203C267.814 87.18 268.569 87.9364 269.428 88.5618C271.559 90.0367 274.294 90.2362 276.881 90.3169C278.959 90.3797 281.34 90.2609 282.643 88.638C283.229 87.9073 283.493 86.9748 283.731 86.067C285.195 80.4926 286.235 74.815 286.842 69.0831L292.769 69.1033C295.334 80.1024 295.124 91.5363 294.9 102.831L294.575 119.302L290.757 118.896C281.689 117.935 272.609 116.973 263.492 116.807C258.15 116.709 252.807 116.885 247.484 117.336L255.799 92.5764C256.878 89.3576 257.968 86.0962 258.221 82.7137C258.586 77.8071 257.211 72.6269 259.116 68.0879C259.268 67.7225 259.461 67.3437 259.808 67.1532C260.155 66.9626 260.593 67.0097 260.992 67.0613C261.744 67.1621 264.043 67.0613 264.589 67.5432C265.394 68.2425 264.862 68.3479 264.578 69.4754C264.069 71.4927 263.588 73.3599 263.595 75.4624C263.602 79.2797 264.783 83.31 267.19 86.3203Z" fill="#394AA5"/>
<path d="M301.897 144.243C302.895 142.917 303.836 141.542 304.719 140.121C304.271 139.162 303.779 138.225 303.387 137.246C302.787 135.744 302.443 134.152 302.103 132.572C301.986 132.034 301.871 131.496 301.756 130.958C300.502 125.105 299.325 119.17 299.081 113.237C299.058 112.744 299.044 112.25 299.038 111.757C299.038 111.686 299.038 111.616 299.038 111.533C299.038 110.993 299.038 110.453 299.038 109.915C299.065 108.57 299.15 107.214 299.305 105.864C299.334 105.6 299.367 105.335 299.403 105.071C299.403 105.013 299.417 104.957 299.426 104.898L314.646 104.342L315.926 104.295C316.806 104.264 317.737 104.215 318.462 103.715C319.682 102.876 319.825 101.157 319.805 99.68C319.731 95.9465 319.309 92.2281 318.543 88.5733C317.965 85.8252 317.142 83.0166 315.293 80.9051C313.775 79.1702 311.577 77.9082 310.787 75.7497C310.494 74.9472 310.42 74.0663 310.04 73.2997C309.659 72.5331 309.03 71.9705 308.437 71.3787C306.349 69.3072 304.618 66.9049 303.311 64.2686C302.405 62.4396 301.422 60.4222 300.238 59.158C300.18 59.093 300.122 59.0325 300.061 58.9742C299.054 57.9767 297.901 57.5396 296.536 58.2188C296.29 58.3422 296.057 58.4877 295.838 58.6537C295.351 59.026 294.906 59.4498 294.51 59.9179C293.131 61.5059 291.921 63.2338 290.9 65.0733C290.182 66.3685 289.565 67.7174 289.056 69.1081C288.653 70.2067 288.321 71.3297 288.059 72.4703C287.867 73.3154 287.715 74.1694 287.594 75.0256C287.146 78.2445 287.146 81.526 287.209 84.7852C287.276 87.7798 287.408 90.7812 287.679 93.7647C287.746 94.4864 287.821 95.2075 287.903 95.9277C288.067 97.3518 288.27 98.7715 288.512 100.187C288.608 100.727 288.706 101.267 288.816 101.805C288.843 101.948 288.872 102.092 288.901 102.233L288.915 102.294C289.21 103.544 289.44 104.809 289.602 106.084C289.62 106.244 289.633 106.403 289.642 106.561C289.68 107.294 289.674 108.028 289.624 108.76C289.573 109.626 289.492 110.489 289.452 111.354C289.452 111.506 289.452 111.656 289.436 111.802C289.425 112.239 289.436 112.676 289.436 113.113C289.481 114.159 289.606 115.2 289.808 116.227C290.185 118.137 290.837 119.982 291.744 121.705C291.829 121.867 291.916 122.026 292.003 122.183C293.138 124.213 294.571 126.076 295.62 128.154C296.526 130.024 297.202 131.996 297.635 134.029C297.784 134.7 297.926 135.372 298.06 136.046C298.268 137.122 298.454 138.207 298.644 139.292C298.662 139.4 298.682 139.516 298.703 139.615C298.956 141.054 299.222 142.486 299.564 143.892C299.764 144.71 299.987 145.517 300.249 146.31L301.897 144.243Z" fill="#464353"/>
<path d="M298.906 126.576C298.906 126.777 298.893 126.979 298.884 127.183C298.844 128.167 298.754 129.148 298.613 130.122C298.428 131.452 298.103 132.758 297.644 134.02C297.34 134.849 296.953 135.646 296.489 136.398C296.078 137.066 295.596 137.687 295.052 138.252C293.709 139.65 291.775 140.096 289.904 140.686C289.043 140.936 288.211 141.276 287.422 141.701C287.281 141.78 287.142 141.865 287.008 141.955L284.666 143.508C283.937 143.99 283.191 144.49 282.69 145.205C282.608 145.327 282.533 145.453 282.466 145.584C282.149 146.242 281.918 146.938 281.777 147.655C280.559 152.734 279.339 157.818 278.504 162.973C278.448 163.314 278.395 163.657 278.336 164L278.316 164.108C278.306 164.082 278.294 164.057 278.28 164.034C272.291 167.66 266.08 170.933 259.68 173.553L258.29 161.897C258.145 160.95 258.097 159.99 258.147 159.033C258.279 157.524 258.892 156.094 259.058 154.59C259.215 153.118 258.937 151.631 258.259 150.316C257.995 149.804 257.664 149.302 257.603 148.731C257.543 148.159 257.872 147.637 258.445 147.579C258.892 147.081 258.928 146.402 258.796 145.729C258.726 145.378 258.621 145.035 258.483 144.705C258.102 143.768 257.621 142.748 257.948 141.791C258.034 141.618 258.073 141.424 258.06 141.231C258.062 141.219 258.062 141.207 258.06 141.195C257.984 140.944 257.686 140.834 257.531 140.621C257.241 140.224 257.531 139.684 257.711 139.227C257.885 138.735 257.986 138.221 258.01 137.7C258.035 137.411 258.053 137.12 258.084 136.833C258.128 136.445 258.197 136.06 258.293 135.681C258.836 133.533 260.144 131.659 261.97 130.409C262.841 129.821 263.81 129.393 264.699 128.84C265.609 128.225 266.478 127.551 267.299 126.822C269.271 125.179 271.32 123.629 273.448 122.173C275.736 120.609 278.106 119.167 280.548 117.856C281.07 117.574 281.592 117.299 282.115 117.031C282.683 116.732 283.255 116.449 283.831 116.182C285.676 115.301 287.769 115.63 289.808 116.218C290.663 116.462 291.507 116.753 292.321 117.018C293.117 117.277 293.882 117.621 294.604 118.045C296.411 119.107 297.904 120.676 298.524 122.658C298.525 122.67 298.525 122.683 298.524 122.696C298.918 123.937 298.942 125.269 298.906 126.576Z" fill="#F86D70"/>
<path opacity="0.1" d="M298.906 126.576C298.906 126.777 298.893 126.979 298.884 127.183C298.844 128.167 298.754 129.148 298.613 130.122C298.428 131.452 298.103 132.758 297.644 134.02C297.34 134.849 296.953 135.646 296.489 136.398C296.078 137.066 295.596 137.687 295.052 138.252C293.709 139.65 291.775 140.096 289.904 140.686C289.043 140.936 288.211 141.276 287.422 141.701C287.281 141.78 287.142 141.865 287.008 141.955L284.666 143.508C283.937 143.99 283.191 144.49 282.69 145.205C282.608 145.327 282.533 145.453 282.466 145.584C282.149 146.242 281.918 146.938 281.777 147.655C280.559 152.734 279.339 157.818 278.504 162.973C278.448 163.314 278.395 163.657 278.336 164L278.316 164.108C278.306 164.082 278.294 164.057 278.28 164.034C272.291 167.66 266.08 170.933 259.68 173.553L258.29 161.897C258.145 160.95 258.097 159.99 258.147 159.033C258.279 157.524 258.892 156.094 259.058 154.59C259.215 153.118 258.937 151.631 258.259 150.316C257.995 149.804 257.664 149.302 257.603 148.731C257.543 148.159 257.872 147.637 258.445 147.579C258.892 147.081 258.928 146.402 258.796 145.729C258.726 145.378 258.621 145.035 258.483 144.705C258.102 143.768 257.621 142.748 257.948 141.791C258.034 141.618 258.073 141.424 258.06 141.231C258.062 141.219 258.062 141.207 258.06 141.195C257.984 140.944 257.686 140.834 257.531 140.621C257.241 140.224 257.531 139.684 257.711 139.227C257.885 138.735 257.986 138.221 258.01 137.7C258.035 137.411 258.053 137.12 258.084 136.833C258.128 136.445 258.197 136.06 258.293 135.681C258.836 133.533 260.144 131.659 261.97 130.409C262.841 129.821 263.81 129.393 264.699 128.84C265.609 128.225 266.478 127.551 267.299 126.822C269.271 125.179 271.32 123.629 273.448 122.173C275.736 120.609 278.106 119.167 280.548 117.856C281.07 117.574 281.592 117.299 282.115 117.031C282.683 116.732 283.255 116.449 283.831 116.182C285.676 115.301 287.769 115.63 289.808 116.218C290.663 116.462 291.507 116.753 292.321 117.018C293.117 117.277 293.882 117.621 294.604 118.045C296.411 119.107 297.904 120.676 298.524 122.658C298.525 122.67 298.525 122.683 298.524 122.696C298.918 123.937 298.942 125.269 298.906 126.576Z" fill="black"/>
<path d="M277.654 89.4474C277.631 89.3954 277.598 89.3484 277.557 89.3094C277.516 89.2704 277.467 89.2402 277.414 89.2205C277.361 89.2008 277.304 89.1921 277.247 89.1948C277.191 89.1976 277.135 89.2118 277.084 89.2366C277.033 89.2614 276.988 89.2963 276.951 89.3391C276.913 89.3819 276.885 89.4319 276.868 89.4859C276.85 89.5399 276.844 89.5969 276.849 89.6535C276.854 89.71 276.87 89.765 276.897 89.815L276.673 89.9249L283.348 103.625L284.554 103.035L277.88 89.3264L277.654 89.4474Z" fill="#3F3D56"/>
<path d="M285.998 75.0973C293.909 75.0973 300.323 68.6746 300.323 60.7517C300.323 52.8288 293.909 46.406 285.998 46.406C278.086 46.406 271.673 52.8288 271.673 60.7517C271.673 68.6746 278.086 75.0973 285.998 75.0973Z" fill="#FBBEBE"/>
<path d="M304.905 51.8706C304.838 50.7303 304.669 49.5982 304.399 48.4882C303.558 44.8637 302.02 41.2952 299.372 38.6928C299.209 38.0565 299.014 37.4289 298.788 36.8122C298.784 36.7969 298.778 36.7819 298.772 36.7673C297.982 34.5948 296.84 32.5675 295.392 30.7668C294.553 29.7223 293.465 28.6912 292.127 28.6508C291.751 28.6374 291.352 28.7024 291.007 28.5298C290.754 28.3657 290.541 28.1466 290.383 27.8887C289.72 27.0499 288.841 26.4084 287.841 26.0335C286.84 25.6586 285.757 25.5645 284.707 25.7615L284.568 25.7907C284.49 25.8064 284.411 25.8243 284.344 25.8445C284.277 25.8646 284.156 25.8983 284.062 25.9274C284.165 26.0977 284.266 26.2703 284.364 26.4452C284.63 26.9189 284.876 27.4031 285.103 27.8977C285.291 28.3101 285.465 28.7293 285.624 29.1552C283.332 29.4174 281.466 31.047 279.76 32.5981L275.745 36.2473C275.737 36.2535 275.731 36.2602 275.724 36.2675L275.608 36.3796C275.579 36.4087 275.55 36.4378 275.523 36.4692C275.512 36.4786 275.502 36.4891 275.494 36.5006C275.46 36.5365 275.429 36.5746 275.398 36.6127C275.342 36.6833 275.292 36.7582 275.248 36.8368C275.226 36.8705 275.206 36.9057 275.189 36.9422C275.183 36.9529 275.178 36.9642 275.174 36.9758C275.159 37.0064 275.146 37.0378 275.136 37.0699C275.135 37.0744 275.135 37.079 275.136 37.0834C275.129 37.1018 275.124 37.1205 275.12 37.1394C275.074 37.2972 275.088 37.4662 275.158 37.6146L277.806 37.6438H278.117C278.131 37.9979 278.142 38.3543 278.155 38.7085C277.735 39.0234 277.332 39.3601 276.947 39.7172C276.527 40.1064 276.133 40.5227 275.767 40.9635C273.379 43.8528 272.132 47.5849 272.007 51.3417C272.007 51.4582 272.007 51.5658 272.007 51.6868C272.007 52.0298 272.007 52.3727 272.007 52.7135C272.007 52.9376 272.027 53.1618 272.045 53.3859C272.046 53.6779 272.123 53.9645 272.268 54.2175C272.288 54.2458 272.308 54.2727 272.331 54.2982C272.465 54.4442 272.627 54.5629 272.806 54.6479L272.998 54.742C273.094 54.7891 273.186 54.8339 273.276 54.8855C274.12 55.3629 274.619 56.2842 275.386 56.8759C275.431 56.9096 275.476 56.9432 275.521 56.9723L275.621 57.0396L275.684 57.0799L275.769 57.1292C275.825 57.1629 275.882 57.1936 275.942 57.2211L276.049 57.2749H276.067C276.156 57.3153 276.246 57.3534 276.338 57.387L276.465 57.4318L276.503 57.4453C276.539 57.4565 276.577 57.4699 276.615 57.4789C276.691 57.5013 276.766 57.5215 276.839 57.5394L277.063 57.5887C277.15 57.6044 277.24 57.6201 277.329 57.6313L277.461 57.6493L277.596 57.6627C277.809 57.6821 278.024 57.6934 278.24 57.6963C278.919 57.6921 279.597 57.645 280.27 57.5551L285.983 56.8827C287.278 56.7325 288.601 56.5823 289.879 56.8468C290.963 57.071 291.961 57.5865 293.013 57.9519C293.25 58.0348 293.488 58.111 293.727 58.176C293.814 58.2007 293.904 58.2276 293.993 58.25L294.116 58.2814L294.403 58.3509C294.506 58.3755 294.609 58.4002 294.712 58.4203C294.857 58.4517 295.001 58.4786 295.146 58.5055C295.245 58.5257 295.345 58.5414 295.446 58.5593H295.466L295.753 58.6041H295.822L296.035 58.6333C296.138 58.649 296.241 58.6624 296.346 58.6736C296.574 58.702 296.802 58.7267 297.031 58.7476C297.4 58.7835 297.772 58.8104 298.15 58.8328L298.521 58.8552L298.893 58.8731L300.012 58.9224H300.061H300.218C300.683 58.9549 301.151 58.9308 301.61 58.8507C301.691 58.835 301.769 58.8171 301.848 58.7947C301.926 58.7723 301.991 58.7498 302.071 58.7229C302.911 58.4002 303.524 57.6582 303.949 56.8647C304.039 56.6966 304.122 56.5285 304.198 56.3559C304.274 56.1833 304.343 56.0085 304.406 55.8336C304.484 55.6095 304.551 55.3965 304.61 55.1724C304.628 55.1119 304.643 55.0514 304.657 54.9886C304.67 54.9258 304.701 54.8025 304.719 54.7084C304.775 54.4506 304.818 54.1906 304.849 53.9284C304.849 53.8454 304.869 53.7602 304.878 53.6773C304.898 53.4532 304.914 53.2447 304.923 53.025C304.923 52.8591 304.923 52.691 304.923 52.5229C304.921 52.3414 304.905 52.1015 304.905 51.8706ZM299.166 38.4888C298.985 38.3185 298.799 38.1548 298.611 38.0002C298.82 38.1324 299.007 38.2974 299.164 38.4888H299.166Z" fill="#464353"/>
<path d="M258.505 59.9626C256.82 59.7541 255.148 59.0144 253.485 59.3776C252.444 59.6017 251.548 60.2495 250.716 60.9152C247.617 63.4023 244.982 66.4188 242.933 69.8252C242.586 70.3345 242.342 70.9073 242.215 71.5109C242.107 72.2102 242.298 72.9208 242.524 73.591C244.055 78.1211 247.329 81.9047 248.82 86.4483C250.387 91.2272 249.843 96.4499 248.688 101.345C247.256 107.389 244.929 113.184 241.785 118.538C241.358 119.334 240.823 120.067 240.196 120.716C239.381 121.501 238.287 122.061 237.803 123.088C237.579 123.536 237.514 124.047 237.355 124.527C236.908 125.872 235.824 127.024 235.719 128.443C235.641 129.526 236.153 130.55 236.465 131.581C236.989 133.353 236.934 135.246 236.306 136.983C235.171 140.099 232.203 142.932 233.065 146.135C234.987 145.582 237.118 144.862 238.025 143.076C238.345 142.443 238.504 141.69 239.043 141.229C240.12 140.312 241.953 141.141 243.097 140.298C243.961 139.657 243.992 138.344 243.607 137.335C243.222 136.326 242.559 135.439 242.264 134.401C241.749 132.529 242.573 130.55 242.421 128.616C242.349 127.719 242.074 126.86 242.054 125.968C242.016 124.236 242.974 122.606 244.247 121.429C245.521 120.252 247.094 119.472 248.643 118.704L254.499 115.79C256.623 114.736 258.95 113.452 259.647 111.183C259.911 110.334 259.913 109.428 259.926 108.541C260.126 94.9772 263.519 81.6873 266.892 68.5498C267.416 66.5145 267.948 64.4703 268.727 62.5157C269.506 60.5611 271.031 58.992 271.807 57.1764C267.302 56.6474 263.185 60.5499 258.505 59.9626Z" fill="#464353"/>
<path d="M290.784 145.053C291.301 148.191 291.616 151.396 291.863 154.586C287.834 157.93 283.496 160.84 279.089 163.538C278.838 163.693 278.585 163.845 278.332 163.987L278.312 164.094C278.302 164.069 278.29 164.044 278.276 164.02C277.934 163.28 277.336 162.69 276.593 162.357C274.941 158.883 273.291 155.408 271.642 151.934C270.746 150.058 269.851 148.164 269.403 146.14C269.403 146.097 269.383 146.052 269.377 146.01C269.036 144.441 268.958 142.811 268.732 141.222C268.617 140.312 268.413 139.415 268.121 138.545C267.852 137.772 267.483 137.021 267.156 136.266C266.753 135.333 266.415 134.39 266.4 133.383C266.4 133.063 266.42 132.711 266.263 132.442C266.096 132.21 265.889 132.01 265.652 131.85C265.357 131.588 265.133 131.254 265.001 130.882C264.869 130.509 264.835 130.108 264.9 129.718C263.557 129.788 262.8 131.234 262.261 132.46C261.771 133.659 261.127 134.789 260.345 135.822C259.775 136.56 259.051 137.164 258.223 137.591C258.149 137.626 258.075 137.662 257.999 137.694C256.13 138.519 253.948 138.227 251.922 137.855C250.152 137.53 248.321 137.127 246.897 136.024L246.745 135.903C246.324 135.552 245.948 135.15 245.626 134.706C244.433 133.074 243.905 130.924 243.611 128.878C243.585 128.685 243.558 128.492 243.533 128.3C243.33 126.854 243.273 125.391 243.365 123.933C243.392 123.574 243.43 123.216 243.477 122.859C243.509 122.635 243.542 122.393 243.58 122.16C243.579 122.153 243.579 122.147 243.58 122.14C243.638 121.77 243.701 121.398 243.764 121.019C243.988 119.748 244.211 118.444 244.883 117.35C245.325 116.669 245.882 116.071 246.53 115.583C246.772 115.393 247.02 115.211 247.271 115.037C247.678 114.754 248.097 114.485 248.522 114.232C249.592 113.59 250.716 113.043 251.88 112.596C252.157 112.488 252.439 112.387 252.721 112.291C253.818 111.9 254.997 111.807 256.141 112.019C257.155 112.166 258.18 112.226 259.203 112.199C261.829 112.147 264.466 111.645 267.087 111.32C270.726 110.872 274.637 110.818 277.81 112.665C277.963 112.752 278.11 112.844 278.258 112.941C279.825 113.967 281.087 115.406 282.106 117.014C282.33 117.352 282.524 117.699 282.717 118.051C283.161 118.859 283.562 119.69 283.919 120.539C284.13 120.957 284.244 121.417 284.252 121.884C284.247 121.973 284.235 122.062 284.216 122.149C284.156 122.467 284.035 122.776 283.993 123.099C283.852 124.321 284.888 125.341 285.275 126.504C285.526 127.262 285.499 128.073 285.64 128.871C285.844 129.992 286.392 131.001 286.885 132.009C287.663 133.633 288.328 135.308 288.877 137.023C289.266 138.218 289.6 139.431 289.893 140.655C289.988 141.048 290.079 141.442 290.164 141.836C290.408 142.921 290.607 143.983 290.784 145.053Z" fill="#F86D70"/>
<path d="M314.648 111.858V113.427L314.359 113.423L314.037 113.418L310.438 113.373L301.57 113.257L299.081 113.225L298.436 113.216L294.7 113.169L289.436 113.1L278.267 112.954L258.885 112.703L251.891 112.614L249.084 112.578L246.501 112.544L244.892 112.522L243.367 112.501L232.066 112.356L228.933 112.315L228.25 112.306L227.807 111.161L224.586 102.843L223.997 101.323L224.445 99.5298L226.459 100.875L227.699 101.029L248.115 103.571L251.947 104.049L260.072 105.062L268.031 106.053L271.151 106.44L289.615 108.74L294.774 109.383L299.045 109.915L314.23 111.807L314.648 111.858Z" fill="#3F3D56"/>
<path d="M224.445 99.5298L228.474 110.065L314.648 111.858V100.426L224.445 99.5298Z" fill="#504F60"/>
<path d="M228.921 111.186L229.593 175.517L232.727 175.069L232.055 111.186H228.921Z" fill="#3F3D56"/>
<path d="M314.36 113.42H314.037C313.515 117.431 312.652 121.39 311.456 125.253L310.438 113.373L310.396 112.867L314.16 112.432L314.286 112.418L314.36 113.42Z" fill="#3F3D56"/>
<path d="M302.114 105.806L269.323 106.478L259.138 103.116L286.446 101.547L302.114 105.806Z" fill="white"/>
<path d="M260.981 92.7334C260.633 92.8669 260.325 93.0868 260.085 93.3722C259.898 93.6815 259.784 94.0296 259.752 94.3899L259.201 97.6782C259.117 97.9789 259.132 98.2988 259.244 98.5905C259.387 98.8662 259.803 99.0096 260.011 98.781C259.985 99.4243 260.04 100.11 260.414 100.635C260.788 101.159 261.571 101.435 262.1 101.07C262.183 101.205 262.294 101.32 262.426 101.408C262.557 101.496 262.707 101.554 262.863 101.578C263.02 101.603 263.18 101.593 263.332 101.549C263.484 101.505 263.625 101.429 263.745 101.325C263.427 101.433 263.405 101.919 263.631 102.166C263.884 102.389 264.207 102.519 264.544 102.531C268.477 103.086 272.487 102.581 276.161 101.067C276.508 100.924 275.594 96.6403 275.503 96.201C275.279 95.1677 275.167 93.9057 274.296 93.2108C272.215 91.5476 268.517 91.2204 265.981 91.4176C264.248 91.5489 262.554 91.9947 260.981 92.7334Z" fill="#FBBEBE"/>
<path opacity="0.1" d="M294.345 93.2311C286.249 93.3857 277.985 93.518 270.258 91.0904C270.996 93.9547 270.945 96.9657 270.111 99.8032L307.965 102.941C309.57 103.074 316.224 103.827 317.789 103.448C319.353 103.069 304.661 98.2229 305.254 96.7233C306.886 92.5923 312.352 90.1714 308.415 90.0168C303.446 89.8195 299.352 93.1369 294.345 93.2311Z" fill="black"/>
<path d="M294.569 93.6793C286.473 93.834 278.209 93.9663 270.482 91.5387C271.22 94.4029 271.169 97.414 270.334 100.251L308.189 103.39C309.793 103.522 316.448 104.286 318.012 103.896C319.577 103.506 319.21 101.585 319.803 100.086C321.435 95.9545 312.576 90.6197 308.638 90.465C303.669 90.2677 299.576 93.5852 294.569 93.6793Z" fill="#464353"/>
<path d="M281.696 94.3025C282.044 94.4358 282.352 94.6556 282.591 94.9413C282.778 95.2508 282.893 95.5987 282.927 95.9589L283.478 99.2472C283.561 99.5481 283.546 99.8677 283.435 100.16C283.292 100.435 282.873 100.579 282.667 100.35C282.692 100.993 282.638 101.679 282.264 102.204C281.891 102.728 281.107 103.004 280.577 102.639C280.494 102.774 280.383 102.889 280.251 102.977C280.119 103.065 279.97 103.123 279.813 103.147C279.657 103.172 279.497 103.162 279.345 103.118C279.192 103.074 279.052 102.998 278.932 102.894C279.25 103.002 279.274 103.488 279.048 103.735C278.794 103.958 278.471 104.088 278.133 104.1C274.2 104.655 270.191 104.15 266.518 102.636C266.171 102.493 267.082 98.2094 267.176 97.7701C267.4 96.7368 267.512 95.4748 268.383 94.7799C270.462 93.1167 274.162 92.7895 276.698 92.9867C278.43 93.1182 280.123 93.5641 281.696 94.3025Z" fill="#FBBEBE"/>
<path d="M228.201 87.1632C227.458 88.1226 226.712 89.1021 226.233 90.2207C225.318 92.3546 225.452 94.7709 225.604 97.0887C225.647 97.7611 225.7 98.447 226.052 99.0051C226.356 99.4268 226.756 99.7689 227.22 100.003C229.159 101.105 231.428 101.435 233.644 101.682C237.037 102.058 240.443 102.287 243.86 102.37C252.325 102.576 260.92 101.883 269.166 103.804C268.145 102.251 268.148 100.195 268.718 98.4246C269.289 96.6538 270.388 95.1116 271.465 93.5941C267.691 92.3972 263.644 94.2666 259.691 94.0805C255.633 93.89 251.877 91.5409 247.815 91.5432C246.942 91.5432 246.053 91.653 245.205 91.4423C244.357 91.2316 243.535 90.5905 243.457 89.7186C244.54 89.9629 245.568 89.0349 246.015 88.0173C246.463 86.9996 246.543 85.8497 246.978 84.8254C248.059 82.2768 250.98 81.0955 252.797 78.9974C253.084 78.6657 253.355 78.2734 253.346 77.8341C253.303 77.4619 253.147 77.112 252.898 76.8321C251.387 74.8148 249.111 73.694 247.219 72.125C246.561 71.578 245.234 69.5158 244.495 69.3253C243.126 68.9734 241.964 70.9549 241.073 71.921C236.576 76.8149 232.285 81.8957 228.201 87.1632Z" fill="#464353"/>
<path opacity="0.07" d="M273.208 86.594C273.776 87.0154 274.28 87.5158 274.706 88.0801C274.918 88.3635 275.069 88.688 275.15 89.0329C275.23 89.3778 275.238 89.7358 275.173 90.084C275.104 89.4344 275.249 88.7798 275.585 88.2201C275.922 87.6604 276.432 87.2263 277.038 86.984L273.208 86.594Z" fill="black"/>
<g opacity="0.1">
<path opacity="0.1" d="M285.622 27.8127C285.359 27.1121 285.055 26.4273 284.713 25.7617C284.492 25.8043 284.274 25.8604 284.06 25.9298C284.444 26.5686 284.79 27.2295 285.096 27.9091C285.268 27.8643 285.443 27.8329 285.622 27.8127Z" fill="black"/>
<path opacity="0.1" d="M298.609 36.6509C298.669 36.7002 298.727 36.7562 298.785 36.8078C298.781 36.7932 298.776 36.779 298.77 36.7652C298.719 36.7278 298.665 36.6897 298.609 36.6509Z" fill="black"/>
<path opacity="0.1" d="M277.802 37.6373C277.918 37.5454 278.025 37.4491 278.151 37.3594L278.115 36.2947L275.724 36.27C275.337 36.6264 274.925 37.1375 275.154 37.6149L277.802 37.6373Z" fill="black"/>
<path opacity="0.1" d="M303.936 55.5603C303.511 56.3538 302.897 57.098 302.058 57.4185C301.411 57.6651 300.699 57.6427 300.008 57.6113C297.648 57.5149 295.249 57.4096 293.02 56.6273C291.977 56.2597 290.978 55.7464 289.886 55.52C288.608 55.2555 287.285 55.4057 285.989 55.5581L280.277 56.2305C278.592 56.4278 276.714 56.5757 275.368 55.5401C274.598 54.9484 274.102 54.0271 273.258 53.5519C272.902 53.3502 272.479 53.2202 272.248 52.8795C272.103 52.6265 272.025 52.3398 272.024 52.0479C272.006 51.8125 271.995 51.5772 271.986 51.3418C271.962 52.0256 271.975 52.7103 272.024 53.3928C272.025 53.6848 272.103 53.9714 272.248 54.2244C272.472 54.5628 272.902 54.6929 273.258 54.8968C274.102 55.372 274.601 56.2933 275.368 56.8851C276.711 57.9206 278.592 57.7817 280.277 57.5754L285.989 56.903C287.285 56.7506 288.608 56.6004 289.886 56.8649C290.969 57.089 291.968 57.6046 293.02 57.9722C295.258 58.7545 297.648 58.8688 300.008 58.9562C300.699 58.9854 301.411 59.01 302.058 58.7634C302.897 58.4429 303.511 57.6987 303.936 56.9052C304.759 55.3698 304.99 53.6281 304.903 51.873C304.855 53.1583 304.525 54.4173 303.936 55.5603Z" fill="black"/>
</g>
<path opacity="0.1" d="M285.557 29.2539L288.691 32.1679C288.691 32.1679 286.005 31.0471 285.557 29.2539Z" fill="black"/>
</g>
<path d="M0 166H432V219C432 230.046 423.046 239 412 239H20C8.95431 239 0 230.046 0 219V166Z" fill="#394AA5"/>
<path d="M130.04 192.31V199.3H137.66V201.55H130.04V208.75H138.56V211H127.31V190.06H138.56V192.31H130.04ZM151.271 211L147.371 204.88L143.621 211H140.771L146.081 202.84L140.771 194.56H143.861L147.761 200.65L151.481 194.56H154.331L149.051 202.69L154.361 211H151.271ZM156.026 202.72C156.026 201.04 156.366 199.57 157.046 198.31C157.726 197.03 158.656 196.04 159.836 195.34C161.036 194.64 162.366 194.29 163.826 194.29C165.266 194.29 166.516 194.6 167.576 195.22C168.636 195.84 169.426 196.62 169.946 197.56V194.56H172.706V211H169.946V207.94C169.406 208.9 168.596 209.7 167.516 210.34C166.456 210.96 165.216 211.27 163.796 211.27C162.336 211.27 161.016 210.91 159.836 210.19C158.656 209.47 157.726 208.46 157.046 207.16C156.366 205.86 156.026 204.38 156.026 202.72ZM169.946 202.75C169.946 201.51 169.696 200.43 169.196 199.51C168.696 198.59 168.016 197.89 167.156 197.41C166.316 196.91 165.386 196.66 164.366 196.66C163.346 196.66 162.416 196.9 161.576 197.38C160.736 197.86 160.066 198.56 159.566 199.48C159.066 200.4 158.816 201.48 158.816 202.72C158.816 203.98 159.066 205.08 159.566 206.02C160.066 206.94 160.736 207.65 161.576 208.15C162.416 208.63 163.346 208.87 164.366 208.87C165.386 208.87 166.316 208.63 167.156 208.15C168.016 207.65 168.696 206.94 169.196 206.02C169.696 205.08 169.946 203.99 169.946 202.75ZM197.09 194.26C198.37 194.26 199.51 194.53 200.51 195.07C201.51 195.59 202.3 196.38 202.88 197.44C203.46 198.5 203.75 199.79 203.75 201.31V211H201.05V201.7C201.05 200.06 200.64 198.81 199.82 197.95C199.02 197.07 197.93 196.63 196.55 196.63C195.13 196.63 194 197.09 193.16 198.01C192.32 198.91 191.9 200.22 191.9 201.94V211H189.2V201.7C189.2 200.06 188.79 198.81 187.97 197.95C187.17 197.07 186.08 196.63 184.7 196.63C183.28 196.63 182.15 197.09 181.31 198.01C180.47 198.91 180.05 200.22 180.05 201.94V211H177.32V194.56H180.05V196.93C180.59 196.07 181.31 195.41 182.21 194.95C183.13 194.49 184.14 194.26 185.24 194.26C186.62 194.26 187.84 194.57 188.9 195.19C189.96 195.81 190.75 196.72 191.27 197.92C191.73 196.76 192.49 195.86 193.55 195.22C194.61 194.58 195.79 194.26 197.09 194.26ZM226.696 200.23C227.456 200.35 228.146 200.66 228.766 201.16C229.406 201.66 229.906 202.28 230.266 203.02C230.646 203.76 230.836 204.55 230.836 205.39C230.836 206.45 230.566 207.41 230.026 208.27C229.486 209.11 228.696 209.78 227.656 210.28C226.636 210.76 225.426 211 224.026 211H216.226V190.09H223.726C225.146 190.09 226.356 190.33 227.356 190.81C228.356 191.27 229.106 191.9 229.606 192.7C230.106 193.5 230.356 194.4 230.356 195.4C230.356 196.64 230.016 197.67 229.336 198.49C228.676 199.29 227.796 199.87 226.696 200.23ZM218.956 199.12H223.546C224.826 199.12 225.816 198.82 226.516 198.22C227.216 197.62 227.566 196.79 227.566 195.73C227.566 194.67 227.216 193.84 226.516 193.24C225.816 192.64 224.806 192.34 223.486 192.34H218.956V199.12ZM223.786 208.75C225.146 208.75 226.206 208.43 226.966 207.79C227.726 207.15 228.106 206.26 228.106 205.12C228.106 203.96 227.706 203.05 226.906 202.39C226.106 201.71 225.036 201.37 223.696 201.37H218.956V208.75H223.786ZM241.794 211.27C240.254 211.27 238.854 210.92 237.594 210.22C236.354 209.52 235.374 208.53 234.654 207.25C233.954 205.95 233.604 204.45 233.604 202.75C233.604 201.07 233.964 199.59 234.684 198.31C235.424 197.01 236.424 196.02 237.684 195.34C238.944 194.64 240.354 194.29 241.914 194.29C243.474 194.29 244.884 194.64 246.144 195.34C247.404 196.02 248.394 197 249.114 198.28C249.854 199.56 250.224 201.05 250.224 202.75C250.224 204.45 249.844 205.95 249.084 207.25C248.344 208.53 247.334 209.52 246.054 210.22C244.774 210.92 243.354 211.27 241.794 211.27ZM241.794 208.87C242.774 208.87 243.694 208.64 244.554 208.18C245.414 207.72 246.104 207.03 246.624 206.11C247.164 205.19 247.434 204.07 247.434 202.75C247.434 201.43 247.174 200.31 246.654 199.39C246.134 198.47 245.454 197.79 244.614 197.35C243.774 196.89 242.864 196.66 241.884 196.66C240.884 196.66 239.964 196.89 239.124 197.35C238.304 197.79 237.644 198.47 237.144 199.39C236.644 200.31 236.394 201.43 236.394 202.75C236.394 204.09 236.634 205.22 237.114 206.14C237.614 207.06 238.274 207.75 239.094 208.21C239.914 208.65 240.814 208.87 241.794 208.87ZM252.794 202.72C252.794 201.04 253.134 199.57 253.814 198.31C254.494 197.03 255.424 196.04 256.604 195.34C257.804 194.64 259.134 194.29 260.594 194.29C262.034 194.29 263.284 194.6 264.344 195.22C265.404 195.84 266.194 196.62 266.714 197.56V194.56H269.474V211H266.714V207.94C266.174 208.9 265.364 209.7 264.284 210.34C263.224 210.96 261.984 211.27 260.564 211.27C259.104 211.27 257.784 210.91 256.604 210.19C255.424 209.47 254.494 208.46 253.814 207.16C253.134 205.86 252.794 204.38 252.794 202.72ZM266.714 202.75C266.714 201.51 266.464 200.43 265.964 199.51C265.464 198.59 264.784 197.89 263.924 197.41C263.084 196.91 262.154 196.66 261.134 196.66C260.114 196.66 259.184 196.9 258.344 197.38C257.504 197.86 256.834 198.56 256.334 199.48C255.834 200.4 255.584 201.48 255.584 202.72C255.584 203.98 255.834 205.08 256.334 206.02C256.834 206.94 257.504 207.65 258.344 208.15C259.184 208.63 260.114 208.87 261.134 208.87C262.154 208.87 263.084 208.63 263.924 208.15C264.784 207.65 265.464 206.94 265.964 206.02C266.464 205.08 266.714 203.99 266.714 202.75ZM276.817 197.23C277.297 196.29 277.977 195.56 278.857 195.04C279.757 194.52 280.847 194.26 282.127 194.26V197.08H281.407C278.347 197.08 276.817 198.74 276.817 202.06V211H274.087V194.56H276.817V197.23ZM284.259 202.72C284.259 201.04 284.599 199.57 285.279 198.31C285.959 197.03 286.889 196.04 288.069 195.34C289.269 194.64 290.609 194.29 292.089 194.29C293.369 194.29 294.559 194.59 295.659 195.19C296.759 195.77 297.599 196.54 298.179 197.5V188.8H300.939V211H298.179V207.91C297.639 208.89 296.839 209.7 295.779 210.34C294.719 210.96 293.479 211.27 292.059 211.27C290.599 211.27 289.269 210.91 288.069 210.19C286.889 209.47 285.959 208.46 285.279 207.16C284.599 205.86 284.259 204.38 284.259 202.72ZM298.179 202.75C298.179 201.51 297.929 200.43 297.429 199.51C296.929 198.59 296.249 197.89 295.389 197.41C294.549 196.91 293.619 196.66 292.599 196.66C291.579 196.66 290.649 196.9 289.809 197.38C288.969 197.86 288.299 198.56 287.799 199.48C287.299 200.4 287.049 201.48 287.049 202.72C287.049 203.98 287.299 205.08 287.799 206.02C288.299 206.94 288.969 207.65 289.809 208.15C290.649 208.63 291.579 208.87 292.599 208.87C293.619 208.87 294.549 208.63 295.389 208.15C296.249 207.65 296.929 206.94 297.429 206.02C297.929 205.08 298.179 203.99 298.179 202.75Z" fill="white"/>
<defs>
<clipPath id="clip0">
<rect width="220" height="180" fill="white" transform="translate(100)"/>
</clipPath>
</defs>
</svg>
