<svg width="433" height="239" viewBox="0 0 433 239" fill="none" xmlns="http://www.w3.org/2000/svg">
<rect width="433" height="239" rx="20" fill="#AA4700"/>
<path d="M0 166H432V219C432 230.046 423.046 239 412 239H20C8.95431 239 0 230.046 0 219V166Z" fill="#EF6C00"/>
<path d="M75.67 205.35H66.55L64.87 210H61.99L69.55 189.21H72.7L80.23 210H77.35L75.67 205.35ZM74.89 203.13L71.11 192.57L67.33 203.13H74.89ZM82.5048 201.72C82.5048 200.04 82.8448 198.57 83.5248 197.31C84.2048 196.03 85.1348 195.04 86.3148 194.34C87.5148 193.64 88.8548 193.29 90.3348 193.29C91.6148 193.29 92.8048 193.59 93.9048 194.19C95.0048 194.77 95.8448 195.54 96.4248 196.5V187.8H99.1848V210H96.4248V206.91C95.8848 207.89 95.0848 208.7 94.0248 209.34C92.9648 209.96 91.7248 210.27 90.3048 210.27C88.8448 210.27 87.5148 209.91 86.3148 209.19C85.1348 208.47 84.2048 207.46 83.5248 206.16C82.8448 204.86 82.5048 203.38 82.5048 201.72ZM96.4248 201.75C96.4248 200.51 96.1748 199.43 95.6748 198.51C95.1748 197.59 94.4948 196.89 93.6348 196.41C92.7948 195.91 91.8648 195.66 90.8448 195.66C89.8248 195.66 88.8948 195.9 88.0548 196.38C87.2148 196.86 86.5448 197.56 86.0448 198.48C85.5448 199.4 85.2948 200.48 85.2948 201.72C85.2948 202.98 85.5448 204.08 86.0448 205.02C86.5448 205.94 87.2148 206.65 88.0548 207.15C88.8948 207.63 89.8248 207.87 90.8448 207.87C91.8648 207.87 92.7948 207.63 93.6348 207.15C94.4948 206.65 95.1748 205.94 95.6748 205.02C96.1748 204.08 96.4248 202.99 96.4248 201.75ZM109.918 207.48L115.018 193.56H117.928L111.478 210H108.298L101.848 193.56H104.788L109.918 207.48ZM135.615 201.15C135.615 201.67 135.585 202.22 135.525 202.8H122.385C122.485 204.42 123.035 205.69 124.035 206.61C125.055 207.51 126.285 207.96 127.725 207.96C128.905 207.96 129.885 207.69 130.665 207.15C131.465 206.59 132.025 205.85 132.345 204.93H135.285C134.845 206.51 133.965 207.8 132.645 208.8C131.325 209.78 129.685 210.27 127.725 210.27C126.165 210.27 124.765 209.92 123.525 209.22C122.305 208.52 121.345 207.53 120.645 206.25C119.945 204.95 119.595 203.45 119.595 201.75C119.595 200.05 119.935 198.56 120.615 197.28C121.295 196 122.245 195.02 123.465 194.34C124.705 193.64 126.125 193.29 127.725 193.29C129.285 193.29 130.665 193.63 131.865 194.31C133.065 194.99 133.985 195.93 134.625 197.13C135.285 198.31 135.615 199.65 135.615 201.15ZM132.795 200.58C132.795 199.54 132.565 198.65 132.105 197.91C131.645 197.15 131.015 196.58 130.215 196.2C129.435 195.8 128.565 195.6 127.605 195.6C126.225 195.6 125.045 196.04 124.065 196.92C123.105 197.8 122.555 199.02 122.415 200.58H132.795ZM141.948 196.23C142.428 195.29 143.108 194.56 143.988 194.04C144.888 193.52 145.978 193.26 147.258 193.26V196.08H146.538C143.478 196.08 141.948 197.74 141.948 201.06V210H139.218V193.56H141.948V196.23ZM153.74 195.81V205.5C153.74 206.3 153.91 206.87 154.25 207.21C154.59 207.53 155.18 207.69 156.02 207.69H158.03V210H155.57C154.05 210 152.91 209.65 152.15 208.95C151.39 208.25 151.01 207.1 151.01 205.5V195.81H148.88V193.56H151.01V189.42H153.74V193.56H158.03V195.81H153.74ZM162.747 190.89C162.227 190.89 161.787 190.71 161.427 190.35C161.067 189.99 160.887 189.55 160.887 189.03C160.887 188.51 161.067 188.07 161.427 187.71C161.787 187.35 162.227 187.17 162.747 187.17C163.247 187.17 163.667 187.35 164.007 187.71C164.367 188.07 164.547 188.51 164.547 189.03C164.547 189.55 164.367 189.99 164.007 190.35C163.667 190.71 163.247 190.89 162.747 190.89ZM164.067 193.56V210H161.337V193.56H164.067ZM174.54 210.27C173.28 210.27 172.15 210.06 171.15 209.64C170.15 209.2 169.36 208.6 168.78 207.84C168.2 207.06 167.88 206.17 167.82 205.17H170.64C170.72 205.99 171.1 206.66 171.78 207.18C172.48 207.7 173.39 207.96 174.51 207.96C175.55 207.96 176.37 207.73 176.97 207.27C177.57 206.81 177.87 206.23 177.87 205.53C177.87 204.81 177.55 204.28 176.91 203.94C176.27 203.58 175.28 203.23 173.94 202.89C172.72 202.57 171.72 202.25 170.94 201.93C170.18 201.59 169.52 201.1 168.96 200.46C168.42 199.8 168.15 198.94 168.15 197.88C168.15 197.04 168.4 196.27 168.9 195.57C169.4 194.87 170.11 194.32 171.03 193.92C171.95 193.5 173 193.29 174.18 193.29C176 193.29 177.47 193.75 178.59 194.67C179.71 195.59 180.31 196.85 180.39 198.45H177.66C177.6 197.59 177.25 196.9 176.61 196.38C175.99 195.86 175.15 195.6 174.09 195.6C173.11 195.6 172.33 195.81 171.75 196.23C171.17 196.65 170.88 197.2 170.88 197.88C170.88 198.42 171.05 198.87 171.39 199.23C171.75 199.57 172.19 199.85 172.71 200.07C173.25 200.27 173.99 200.5 174.93 200.76C176.11 201.08 177.07 201.4 177.81 201.72C178.55 202.02 179.18 202.48 179.7 203.1C180.24 203.72 180.52 204.53 180.54 205.53C180.54 206.43 180.29 207.24 179.79 207.96C179.29 208.68 178.58 209.25 177.66 209.67C176.76 210.07 175.72 210.27 174.54 210.27ZM199.394 201.15C199.394 201.67 199.364 202.22 199.304 202.8H186.164C186.264 204.42 186.814 205.69 187.814 206.61C188.834 207.51 190.064 207.96 191.504 207.96C192.684 207.96 193.664 207.69 194.444 207.15C195.244 206.59 195.804 205.85 196.124 204.93H199.064C198.624 206.51 197.744 207.8 196.424 208.8C195.104 209.78 193.464 210.27 191.504 210.27C189.944 210.27 188.544 209.92 187.304 209.22C186.084 208.52 185.124 207.53 184.424 206.25C183.724 204.95 183.374 203.45 183.374 201.75C183.374 200.05 183.714 198.56 184.394 197.28C185.074 196 186.024 195.02 187.244 194.34C188.484 193.64 189.904 193.29 191.504 193.29C193.064 193.29 194.444 193.63 195.644 194.31C196.844 194.99 197.764 195.93 198.404 197.13C199.064 198.31 199.394 199.65 199.394 201.15ZM196.574 200.58C196.574 199.54 196.344 198.65 195.884 197.91C195.424 197.15 194.794 196.58 193.994 196.2C193.214 195.8 192.344 195.6 191.384 195.6C190.004 195.6 188.824 196.04 187.844 196.92C186.884 197.8 186.334 199.02 186.194 200.58H196.574ZM222.768 193.26C224.048 193.26 225.188 193.53 226.188 194.07C227.188 194.59 227.978 195.38 228.558 196.44C229.138 197.5 229.428 198.79 229.428 200.31V210H226.728V200.7C226.728 199.06 226.318 197.81 225.498 196.95C224.698 196.07 223.608 195.63 222.228 195.63C220.808 195.63 219.678 196.09 218.838 197.01C217.998 197.91 217.578 199.22 217.578 200.94V210H214.878V200.7C214.878 199.06 214.468 197.81 213.648 196.95C212.848 196.07 211.758 195.63 210.378 195.63C208.958 195.63 207.828 196.09 206.988 197.01C206.148 197.91 205.728 199.22 205.728 200.94V210H202.998V193.56H205.728V195.93C206.268 195.07 206.988 194.41 207.888 193.95C208.808 193.49 209.818 193.26 210.918 193.26C212.298 193.26 213.518 193.57 214.578 194.19C215.638 194.81 216.428 195.72 216.948 196.92C217.408 195.76 218.168 194.86 219.228 194.22C220.288 193.58 221.468 193.26 222.768 193.26ZM248.906 201.15C248.906 201.67 248.876 202.22 248.816 202.8H235.676C235.776 204.42 236.326 205.69 237.326 206.61C238.346 207.51 239.576 207.96 241.016 207.96C242.196 207.96 243.176 207.69 243.956 207.15C244.756 206.59 245.316 205.85 245.636 204.93H248.576C248.136 206.51 247.256 207.8 245.936 208.8C244.616 209.78 242.976 210.27 241.016 210.27C239.456 210.27 238.056 209.92 236.816 209.22C235.596 208.52 234.636 207.53 233.936 206.25C233.236 204.95 232.886 203.45 232.886 201.75C232.886 200.05 233.226 198.56 233.906 197.28C234.586 196 235.536 195.02 236.756 194.34C237.996 193.64 239.416 193.29 241.016 193.29C242.576 193.29 243.956 193.63 245.156 194.31C246.356 194.99 247.276 195.93 247.916 197.13C248.576 198.31 248.906 199.65 248.906 201.15ZM246.086 200.58C246.086 199.54 245.856 198.65 245.396 197.91C244.936 197.15 244.306 196.58 243.506 196.2C242.726 195.8 241.856 195.6 240.896 195.6C239.516 195.6 238.336 196.04 237.356 196.92C236.396 197.8 235.846 199.02 235.706 200.58H246.086ZM260.519 193.26C262.519 193.26 264.139 193.87 265.379 195.09C266.619 196.29 267.239 198.03 267.239 200.31V210H264.539V200.7C264.539 199.06 264.129 197.81 263.309 196.95C262.489 196.07 261.369 195.63 259.949 195.63C258.509 195.63 257.359 196.08 256.499 196.98C255.659 197.88 255.239 199.19 255.239 200.91V210H252.509V193.56H255.239V195.9C255.779 195.06 256.509 194.41 257.429 193.95C258.369 193.49 259.399 193.26 260.519 193.26ZM275.029 195.81V205.5C275.029 206.3 275.199 206.87 275.539 207.21C275.879 207.53 276.469 207.69 277.309 207.69H279.319V210H276.859C275.339 210 274.199 209.65 273.439 208.95C272.679 208.25 272.299 207.1 272.299 205.5V195.81H270.169V193.56H272.299V189.42H275.029V193.56H279.319V195.81H275.029ZM301.094 199.23C301.854 199.35 302.544 199.66 303.164 200.16C303.804 200.66 304.304 201.28 304.664 202.02C305.044 202.76 305.234 203.55 305.234 204.39C305.234 205.45 304.964 206.41 304.424 207.27C303.884 208.11 303.094 208.78 302.054 209.28C301.034 209.76 299.824 210 298.424 210H290.624V189.09H298.124C299.544 189.09 300.754 189.33 301.754 189.81C302.754 190.27 303.504 190.9 304.004 191.7C304.504 192.5 304.754 193.4 304.754 194.4C304.754 195.64 304.414 196.67 303.734 197.49C303.074 198.29 302.194 198.87 301.094 199.23ZM293.354 198.12H297.944C299.224 198.12 300.214 197.82 300.914 197.22C301.614 196.62 301.964 195.79 301.964 194.73C301.964 193.67 301.614 192.84 300.914 192.24C300.214 191.64 299.204 191.34 297.884 191.34H293.354V198.12ZM298.184 207.75C299.544 207.75 300.604 207.43 301.364 206.79C302.124 206.15 302.504 205.26 302.504 204.12C302.504 202.96 302.104 202.05 301.304 201.39C300.504 200.71 299.434 200.37 298.094 200.37H293.354V207.75H298.184ZM316.193 210.27C314.653 210.27 313.253 209.92 311.993 209.22C310.753 208.52 309.773 207.53 309.053 206.25C308.353 204.95 308.003 203.45 308.003 201.75C308.003 200.07 308.363 198.59 309.083 197.31C309.823 196.01 310.823 195.02 312.083 194.34C313.343 193.64 314.753 193.29 316.313 193.29C317.873 193.29 319.283 193.64 320.543 194.34C321.803 195.02 322.793 196 323.513 197.28C324.253 198.56 324.623 200.05 324.623 201.75C324.623 203.45 324.243 204.95 323.483 206.25C322.743 207.53 321.733 208.52 320.453 209.22C319.173 209.92 317.753 210.27 316.193 210.27ZM316.193 207.87C317.173 207.87 318.093 207.64 318.953 207.18C319.813 206.72 320.503 206.03 321.023 205.11C321.563 204.19 321.833 203.07 321.833 201.75C321.833 200.43 321.573 199.31 321.053 198.39C320.533 197.47 319.853 196.79 319.013 196.35C318.173 195.89 317.263 195.66 316.283 195.66C315.283 195.66 314.363 195.89 313.523 196.35C312.703 196.79 312.043 197.47 311.543 198.39C311.043 199.31 310.793 200.43 310.793 201.75C310.793 203.09 311.033 204.22 311.513 205.14C312.013 206.06 312.673 206.75 313.493 207.21C314.313 207.65 315.213 207.87 316.193 207.87ZM327.192 201.72C327.192 200.04 327.532 198.57 328.212 197.31C328.892 196.03 329.822 195.04 331.002 194.34C332.202 193.64 333.532 193.29 334.992 193.29C336.432 193.29 337.682 193.6 338.742 194.22C339.802 194.84 340.592 195.62 341.112 196.56V193.56H343.872V210H341.112V206.94C340.572 207.9 339.762 208.7 338.682 209.34C337.622 209.96 336.382 210.27 334.962 210.27C333.502 210.27 332.182 209.91 331.002 209.19C329.822 208.47 328.892 207.46 328.212 206.16C327.532 204.86 327.192 203.38 327.192 201.72ZM341.112 201.75C341.112 200.51 340.862 199.43 340.362 198.51C339.862 197.59 339.182 196.89 338.322 196.41C337.482 195.91 336.552 195.66 335.532 195.66C334.512 195.66 333.582 195.9 332.742 196.38C331.902 196.86 331.232 197.56 330.732 198.48C330.232 199.4 329.982 200.48 329.982 201.72C329.982 202.98 330.232 204.08 330.732 205.02C331.232 205.94 331.902 206.65 332.742 207.15C333.582 207.63 334.512 207.87 335.532 207.87C336.552 207.87 337.482 207.63 338.322 207.15C339.182 206.65 339.862 205.94 340.362 205.02C340.862 204.08 341.112 202.99 341.112 201.75ZM351.216 196.23C351.696 195.29 352.376 194.56 353.256 194.04C354.156 193.52 355.246 193.26 356.526 193.26V196.08H355.806C352.746 196.08 351.216 197.74 351.216 201.06V210H348.486V193.56H351.216V196.23ZM358.657 201.72C358.657 200.04 358.997 198.57 359.677 197.31C360.357 196.03 361.287 195.04 362.467 194.34C363.667 193.64 365.007 193.29 366.487 193.29C367.767 193.29 368.957 193.59 370.057 194.19C371.157 194.77 371.997 195.54 372.577 196.5V187.8H375.337V210H372.577V206.91C372.037 207.89 371.237 208.7 370.177 209.34C369.117 209.96 367.877 210.27 366.457 210.27C364.997 210.27 363.667 209.91 362.467 209.19C361.287 208.47 360.357 207.46 359.677 206.16C358.997 204.86 358.657 203.38 358.657 201.72ZM372.577 201.75C372.577 200.51 372.327 199.43 371.827 198.51C371.327 197.59 370.647 196.89 369.787 196.41C368.947 195.91 368.017 195.66 366.997 195.66C365.977 195.66 365.047 195.9 364.207 196.38C363.367 196.86 362.697 197.56 362.197 198.48C361.697 199.4 361.447 200.48 361.447 201.72C361.447 202.98 361.697 204.08 362.197 205.02C362.697 205.94 363.367 206.65 364.207 207.15C365.047 207.63 365.977 207.87 366.997 207.87C368.017 207.87 368.947 207.63 369.787 207.15C370.647 206.65 371.327 205.94 371.827 205.02C372.327 204.08 372.577 202.99 372.577 201.75Z" fill="white"/>
<path d="M319.902 31.1826H238.001V29.5059H200.864V31.1826H118.626C117.898 31.1825 117.178 31.3249 116.506 31.6014C115.834 31.878 115.223 32.2833 114.709 32.7943C114.194 33.3052 113.786 33.9119 113.508 34.5795C113.229 35.2471 113.086 35.9626 113.086 36.6853V148.079C113.086 149.538 113.67 150.938 114.709 151.97C115.748 153.002 117.157 153.581 118.626 153.581H319.902C321.371 153.581 322.78 153.002 323.819 151.97C324.858 150.938 325.442 149.538 325.442 148.079V36.6853C325.442 35.9626 325.299 35.2471 325.02 34.5795C324.742 33.9119 324.334 33.3052 323.819 32.7943C323.305 32.2833 322.694 31.878 322.022 31.6014C321.35 31.3249 320.629 31.1826 319.902 31.1826Z" fill="#3F3D56"/>
<path opacity="0.1" d="M318.014 40.9075H120.513V151.569H318.014V40.9075Z" fill="black"/>
<path d="M219.095 37.8895C220.214 37.8895 221.121 36.9887 221.121 35.8775C221.121 34.7663 220.214 33.8655 219.095 33.8655C217.976 33.8655 217.069 34.7663 217.069 35.8775C217.069 36.9887 217.976 37.8895 219.095 37.8895Z" fill="#EF6C00"/>
<path d="M330.987 149.557H311.712V148.178C311.712 148.142 311.705 148.106 311.691 148.073C311.677 148.04 311.657 148.01 311.632 147.984C311.606 147.959 311.576 147.939 311.542 147.925C311.509 147.911 311.473 147.904 311.437 147.904H304.828C304.792 147.904 304.756 147.911 304.723 147.925C304.69 147.939 304.659 147.959 304.634 147.984C304.608 148.01 304.588 148.04 304.574 148.073C304.56 148.106 304.553 148.142 304.553 148.178V149.557H300.423V148.178C300.423 148.142 300.416 148.106 300.402 148.073C300.388 148.04 300.368 148.01 300.342 147.984C300.316 147.959 300.286 147.939 300.253 147.925C300.219 147.911 300.184 147.904 300.147 147.904H293.539C293.503 147.904 293.467 147.911 293.433 147.925C293.4 147.939 293.37 147.959 293.344 147.984C293.319 148.01 293.298 148.04 293.284 148.073C293.271 148.106 293.263 148.142 293.263 148.178V149.557H289.133V148.178C289.133 148.142 289.126 148.106 289.112 148.073C289.098 148.04 289.078 148.01 289.053 147.984C289.027 147.959 288.997 147.939 288.963 147.925C288.93 147.911 288.894 147.904 288.858 147.904H282.249C282.213 147.904 282.177 147.911 282.144 147.925C282.111 147.939 282.08 147.959 282.055 147.984C282.029 148.01 282.009 148.04 281.995 148.073C281.981 148.106 281.974 148.142 281.974 148.178V149.557H277.844V148.178C277.844 148.142 277.837 148.106 277.823 148.073C277.809 148.04 277.789 148.01 277.763 147.984C277.737 147.959 277.707 147.939 277.674 147.925C277.64 147.911 277.604 147.904 277.568 147.904H270.96C270.924 147.904 270.888 147.911 270.854 147.925C270.821 147.939 270.791 147.959 270.765 147.984C270.739 148.01 270.719 148.04 270.705 148.073C270.692 148.106 270.684 148.142 270.684 148.178V149.557H266.554V148.178C266.554 148.142 266.547 148.106 266.533 148.073C266.519 148.04 266.499 148.01 266.473 147.984C266.448 147.959 266.417 147.939 266.384 147.925C266.351 147.911 266.315 147.904 266.279 147.904H259.67C259.634 147.904 259.598 147.911 259.565 147.925C259.531 147.939 259.501 147.959 259.475 147.984C259.45 148.01 259.43 148.04 259.416 148.073C259.402 148.106 259.395 148.142 259.395 148.178V149.557H255.265V148.178C255.265 148.142 255.257 148.106 255.244 148.073C255.23 148.04 255.209 148.01 255.184 147.984C255.158 147.959 255.128 147.939 255.095 147.925C255.061 147.911 255.025 147.904 254.989 147.904H248.381C248.345 147.904 248.309 147.911 248.275 147.925C248.242 147.939 248.212 147.959 248.186 147.984C248.16 148.01 248.14 148.04 248.126 148.073C248.112 148.106 248.105 148.142 248.105 148.178V149.557H243.975V148.178C243.975 148.142 243.968 148.106 243.954 148.073C243.94 148.04 243.92 148.01 243.894 147.984C243.869 147.959 243.838 147.939 243.805 147.925C243.772 147.911 243.736 147.904 243.7 147.904H191.933C191.897 147.904 191.861 147.911 191.828 147.925C191.794 147.939 191.764 147.959 191.738 147.984C191.713 148.01 191.692 148.04 191.679 148.073C191.665 148.106 191.658 148.142 191.658 148.178V149.557H187.527V148.178C187.527 148.142 187.52 148.106 187.506 148.073C187.492 148.04 187.472 148.01 187.447 147.984C187.421 147.959 187.391 147.939 187.357 147.925C187.324 147.911 187.288 147.904 187.252 147.904H180.643C180.607 147.904 180.571 147.911 180.538 147.925C180.505 147.939 180.474 147.959 180.449 147.984C180.423 148.01 180.403 148.04 180.389 148.073C180.375 148.106 180.368 148.142 180.368 148.178V149.557H176.238V148.178C176.238 148.142 176.231 148.106 176.217 148.073C176.203 148.04 176.183 148.01 176.157 147.984C176.132 147.959 176.101 147.939 176.068 147.925C176.034 147.911 175.999 147.904 175.962 147.904H169.354C169.318 147.904 169.282 147.911 169.248 147.925C169.215 147.939 169.185 147.959 169.159 147.984C169.134 148.01 169.113 148.04 169.099 148.073C169.086 148.106 169.079 148.142 169.079 148.178V149.557H164.948V148.178C164.948 148.142 164.941 148.106 164.927 148.073C164.913 148.04 164.893 148.01 164.868 147.984C164.842 147.959 164.812 147.939 164.778 147.925C164.745 147.911 164.709 147.904 164.673 147.904H158.064C158.028 147.904 157.992 147.911 157.959 147.925C157.926 147.939 157.895 147.959 157.87 147.984C157.844 148.01 157.824 148.04 157.81 148.073C157.796 148.106 157.789 148.142 157.789 148.178V149.557H153.659V148.178C153.659 148.142 153.652 148.106 153.638 148.073C153.624 148.04 153.604 148.01 153.578 147.984C153.552 147.959 153.522 147.939 153.489 147.925C153.455 147.911 153.419 147.904 153.383 147.904H146.775C146.739 147.904 146.703 147.911 146.669 147.925C146.636 147.939 146.606 147.959 146.58 147.984C146.555 148.01 146.534 148.04 146.52 148.073C146.507 148.106 146.499 148.142 146.499 148.178V149.557H142.369V148.178C142.369 148.142 142.362 148.106 142.348 148.073C142.334 148.04 142.314 148.01 142.288 147.984C142.263 147.959 142.233 147.939 142.199 147.925C142.166 147.911 142.13 147.904 142.094 147.904H135.485C135.449 147.904 135.413 147.911 135.38 147.925C135.346 147.939 135.316 147.959 135.291 147.984C135.265 148.01 135.245 148.04 135.231 148.073C135.217 148.106 135.21 148.142 135.21 148.178V149.557H131.08V148.178C131.08 148.142 131.072 148.106 131.059 148.073C131.045 148.04 131.024 148.01 130.999 147.984C130.973 147.959 130.943 147.939 130.91 147.925C130.876 147.911 130.84 147.904 130.804 147.904H124.196C124.16 147.904 124.124 147.911 124.09 147.925C124.057 147.939 124.027 147.959 124.001 147.984C123.975 148.01 123.955 148.04 123.941 148.073C123.927 148.106 123.92 148.142 123.92 148.178V149.557H111.254C109.501 149.557 107.82 150.249 106.581 151.48C105.342 152.711 104.646 154.38 104.646 156.121V159.089C104.646 160.83 105.342 162.5 106.581 163.731C107.82 164.962 109.501 165.653 111.254 165.653H330.987C332.74 165.653 334.421 164.962 335.66 163.731C336.899 162.5 337.596 160.83 337.596 159.089V156.121C337.596 154.38 336.899 152.711 335.66 151.48C334.421 150.249 332.74 149.557 330.987 149.557Z" fill="#3F3D56"/>
<path d="M259.277 53.4685H179.319V136.954H259.277V53.4685Z" fill="#EF6C00"/>
<path d="M221.608 50.0027C221.608 50.0027 214.791 47.5841 210.408 57.2586C206.025 66.933 199.207 77.575 199.207 77.575L203.103 78.5424C203.103 78.5424 204.077 71.7703 206.512 70.8028L205.538 79.5099C205.538 79.5099 234.757 89.6681 247.906 78.5424L247.419 75.1564C247.419 75.1564 249.367 75.6401 249.367 78.5424L250.828 77.0913C250.828 77.0913 249.367 74.1889 244.984 70.3191C242.108 67.7792 241.119 62.9469 240.779 59.9257C240.525 57.403 239.509 55.0155 237.864 53.0765C234.951 49.7235 229.644 46.1598 221.608 50.0027Z" fill="#2F2E41"/>
<path d="M183.934 59.1301L181.101 29.7381C181.101 29.7381 175.434 13.7913 183.934 15.0421C192.433 16.2928 187.397 28.4874 187.397 28.4874L192.119 59.1301H183.934Z" fill="#FFB9B9"/>
<path d="M225.173 81.0177C231.431 81.0177 236.505 75.9779 236.505 69.7612C236.505 63.5444 231.431 58.5046 225.173 58.5046C218.914 58.5046 213.84 63.5444 213.84 69.7612C213.84 75.9779 218.914 81.0177 225.173 81.0177Z" fill="#FFB9B9"/>
<path d="M216.988 74.7642C216.988 74.7642 216.358 87.5841 213.21 88.5221C210.062 89.4602 201.248 99.7786 205.34 102.905C209.433 106.032 233.043 103.843 233.043 103.843L230.839 87.5841C230.839 87.5841 225.802 84.1446 229.895 78.2036L216.988 74.7642Z" fill="#FFB9B9"/>
<path d="M240.619 137.58H196.107C196.267 134.75 196.67 130.754 197.186 126.361C197.344 125.029 197.511 123.656 197.684 122.271C199.211 110.061 201.247 96.653 201.247 96.653L201.782 95.4241L207.228 82.895L207.285 82.9169L214.469 85.7091L214.724 86.9098L216.672 96.0276L229.28 85.9186L240.912 84.1114L241.699 83.9894L243.115 97.2783C243.115 97.2783 243.052 100.249 242.986 104.479C242.911 109.342 242.829 115.87 242.835 121.464C242.838 124.138 242.86 126.598 242.914 128.562C242.958 130.216 243.024 131.52 243.115 132.299C243.326 134.072 242.206 135.913 240.619 137.58Z" fill="#3F3D56"/>
<path d="M207.544 84.4575L207.229 82.5814L198.415 71.9503L193.378 54.1274L181.101 58.8177L189.915 80.3926L202.507 96.3394L207.544 84.4575Z" fill="#3F3D56"/>
<path d="M210.284 71.1074C210.284 71.1074 214.18 65.7865 217.589 64.819C220.998 63.8516 221.485 59.0143 221.485 59.0143C221.485 59.0143 230.251 68.6888 235.608 69.1725C240.965 69.6563 236.095 57.5632 236.095 57.5632L226.355 55.1445L217.102 56.112L209.797 60.9492L210.284 71.1074Z" fill="#2F2E41"/>
<path d="M241.648 126.949L211.531 128.135C211.531 128.135 194.935 131.909 197.155 123.664C199.375 115.419 210.998 121.78 210.998 121.78L242.185 120.614L241.648 126.949Z" fill="#FFB9B9"/>
<path d="M238.237 86.177L241.07 83.9882C241.07 83.9882 245.792 81.4868 246.736 90.2419C247.681 98.9969 254.606 128.076 247.681 128.389C240.755 128.702 223.126 129.014 223.126 129.014L225.015 119.321L239.496 118.383L238.237 86.177Z" fill="#3F3D56"/>
<path opacity="0.15" d="M239.181 99.6223L238.237 117.445L224.385 120.259L236.977 115.256L239.181 99.6223Z" fill="black"/>
<path d="M226.126 0H149.315V20.0116H226.126V0Z" fill="#EF6C00"/>
<path d="M393 165.375H59V166H393V165.375Z" fill="#3F3D56"/>
<path d="M360.562 143.53C365.088 148.353 365.322 155.443 365.322 155.443C365.322 155.443 358.218 154.712 353.693 149.888C349.167 145.065 348.933 137.975 348.933 137.975C348.933 137.975 356.037 138.706 360.562 143.53Z" fill="#EF6C00"/>
<path d="M374.809 151.059C369.953 155.554 362.815 155.786 362.815 155.786C362.815 155.786 363.551 148.73 368.407 144.235C373.263 139.74 380.401 139.508 380.401 139.508C380.401 139.508 379.665 146.563 374.809 151.059Z" fill="#EF6C00"/>
<path d="M373.602 165.375H355.741C355.398 165.375 355.062 165.279 354.772 165.098C354.481 164.918 354.248 164.66 354.098 164.354L350.209 156.414C350.074 156.137 350.011 155.831 350.028 155.524C350.044 155.216 350.139 154.918 350.303 154.658C350.468 154.397 350.696 154.182 350.967 154.033C351.238 153.884 351.542 153.805 351.852 153.805H377.491C377.801 153.805 378.105 153.884 378.376 154.033C378.647 154.182 378.876 154.397 379.04 154.658C379.204 154.918 379.299 155.216 379.315 155.524C379.332 155.831 379.269 156.137 379.134 156.414L375.245 164.354C375.095 164.66 374.862 164.918 374.571 165.098C374.281 165.279 373.945 165.375 373.602 165.375Z" fill="#3F3D56"/>
<path d="M78.189 143.53C82.7145 148.353 82.9484 155.443 82.9484 155.443C82.9484 155.443 75.845 154.712 71.3195 149.888C66.794 145.065 66.5601 137.975 66.5601 137.975C66.5601 137.975 73.6634 138.706 78.189 143.53Z" fill="#EF6C00"/>
<path d="M88.3959 165.375H70.5346C70.1919 165.375 69.8562 165.279 69.5657 165.098C69.2752 164.918 69.0417 164.66 68.8918 164.354L65.0029 156.414C64.8674 156.137 64.805 155.831 64.8214 155.524C64.8379 155.216 64.9327 154.918 65.0969 154.658C65.2612 154.397 65.4895 154.182 65.7604 154.033C66.0314 153.884 66.336 153.805 66.6457 153.805H92.2847C92.5945 153.805 92.8991 153.884 93.17 154.033C93.441 154.182 93.6693 154.397 93.8335 154.658C93.9978 154.918 94.0926 155.216 94.109 155.524C94.1255 155.831 94.063 156.137 93.9275 156.414L90.0387 164.354C89.8888 164.66 89.6553 164.918 89.3648 165.098C89.0743 165.279 88.7386 165.375 88.3959 165.375Z" fill="#3F3D56"/>
<path d="M216.367 8.04321H159.074V11.9685H216.367V8.04321Z" fill="white"/>
</svg>
