<svg width="433" height="239" viewBox="0 0 433 239" fill="none" xmlns="http://www.w3.org/2000/svg">
<rect width="433" height="239" rx="20" fill="#713D7A"/>
<g clip-path="url(#clip0)">
<path d="M146.057 18.4315H129.349C127.742 18.4329 126.202 19.0695 125.066 20.2015C123.93 21.3335 123.292 22.8685 123.29 24.4694V42.5227C123.077 42.51 122.863 42.4909 122.653 42.4655C118.694 42.0504 114.931 40.5416 111.787 38.109C108.643 35.6764 106.244 32.4169 104.859 28.698C103.474 24.979 103.16 20.9485 103.95 17.0608C104.741 13.1732 106.606 9.58298 109.335 6.69508C112.063 3.80718 115.547 1.7364 119.393 0.716203C123.24 -0.303992 127.296 -0.233027 131.104 0.921103C134.911 2.07523 138.32 4.26663 140.945 7.24821C143.571 10.2298 145.308 13.883 145.961 17.7959C145.996 18.0056 146.028 18.2186 146.057 18.4315Z" fill="#F2F2F2"/>
<path d="M343.304 17.7959H129.349C127.573 17.7978 125.871 18.5016 124.616 19.7526C123.361 21.0037 122.655 22.7 122.653 24.4694V136.965C122.655 138.734 123.361 140.431 124.616 141.682C125.871 142.933 127.573 143.636 129.349 143.638H343.304C345.079 143.636 346.781 142.933 348.037 141.682C349.292 140.431 349.998 138.734 350 136.965V24.4694C349.998 22.7 349.292 21.0037 348.037 19.7526C346.781 18.5016 345.079 17.7978 343.304 17.7959ZM349.362 136.965C349.361 138.566 348.722 140.101 347.586 141.233C346.45 142.365 344.91 143.001 343.304 143.003H129.349C127.742 143.001 126.202 142.365 125.066 141.233C123.931 140.101 123.292 138.566 123.29 136.965V24.4694C123.292 22.8685 123.931 21.3335 125.066 20.2015C126.202 19.0695 127.742 18.4329 129.349 18.4315H343.304C344.91 18.4329 346.45 19.0695 347.586 20.2015C348.722 21.3335 349.361 22.8685 349.362 24.4694V136.965Z" fill="#3F3D56"/>
<path d="M332.781 36.0272H139.871C139.786 36.0272 139.705 35.9937 139.646 35.9341C139.586 35.8745 139.552 35.7937 139.552 35.7094C139.552 35.6251 139.586 35.5443 139.646 35.4847C139.705 35.4251 139.786 35.3916 139.871 35.3916H332.781C332.866 35.3916 332.947 35.4251 333.007 35.4847C333.067 35.5443 333.1 35.6251 333.1 35.7094C333.1 35.7937 333.067 35.8745 333.007 35.9341C332.947 35.9937 332.866 36.0272 332.781 36.0272Z" fill="#3F3D56"/>
<path d="M194.396 129.974C194.312 129.974 194.23 129.94 194.171 129.881C194.111 129.821 194.077 129.74 194.077 129.656V25.1049C194.077 25.0206 194.111 24.9398 194.171 24.8802C194.23 24.8206 194.312 24.7871 194.396 24.7871C194.481 24.7871 194.562 24.8206 194.622 24.8802C194.681 24.9398 194.715 25.0206 194.715 25.1049V129.656C194.715 129.74 194.681 129.821 194.622 129.881C194.562 129.94 194.481 129.974 194.396 129.974Z" fill="#3F3D56"/>
<path d="M242.544 129.974C242.459 129.974 242.378 129.94 242.319 129.881C242.259 129.821 242.225 129.74 242.225 129.656V25.1049C242.225 25.0206 242.259 24.9398 242.319 24.8802C242.378 24.8206 242.459 24.7871 242.544 24.7871C242.629 24.7871 242.71 24.8206 242.769 24.8802C242.829 24.9398 242.863 25.0206 242.863 25.1049V129.656C242.863 129.74 242.829 129.821 242.769 129.881C242.71 129.94 242.629 129.974 242.544 129.974Z" fill="#3F3D56"/>
<path d="M290.692 129.974C290.607 129.974 290.526 129.94 290.466 129.881C290.407 129.821 290.373 129.74 290.373 129.656V25.1049C290.373 25.0206 290.407 24.9398 290.466 24.8802C290.526 24.8206 290.607 24.7871 290.692 24.7871C290.776 24.7871 290.858 24.8206 290.917 24.8802C290.977 24.9398 291.011 25.0206 291.011 25.1049V129.656C291.011 129.74 290.977 129.821 290.917 129.881C290.858 129.94 290.776 129.974 290.692 129.974Z" fill="#3F3D56"/>
<path d="M163.44 68.8282H151.789C151.408 68.8277 151.043 68.6769 150.774 68.4088C150.505 68.1408 150.354 67.7773 150.354 67.3981V53.6954C150.354 53.3163 150.505 52.9528 150.774 52.6847C151.043 52.4166 151.408 52.2658 151.789 52.2654H163.44C163.82 52.2658 164.185 52.4166 164.454 52.6847C164.723 52.9528 164.874 53.3163 164.875 53.6954V67.3981C164.874 67.7773 164.723 68.1408 164.454 68.4088C164.185 68.6769 163.82 68.8277 163.44 68.8282Z" fill="#AB60B8"/>
<path d="M180.021 107.916H168.369C167.989 107.915 167.624 107.764 167.355 107.496C167.086 107.228 166.935 106.865 166.935 106.485V92.7828C166.935 92.4037 167.086 92.0402 167.355 91.7721C167.624 91.504 167.989 91.3532 168.369 91.3528H180.021C180.401 91.3532 180.766 91.504 181.035 91.7721C181.304 92.0402 181.455 92.4037 181.455 92.7828V106.485C181.455 106.865 181.304 107.228 181.035 107.496C180.766 107.764 180.401 107.915 180.021 107.916Z" fill="#AB60B8"/>
<path d="M217.646 77.0903H205.995C205.615 77.0899 205.25 76.9391 204.981 76.671C204.712 76.4029 204.561 76.0395 204.56 75.6603V61.9576C204.561 61.5785 204.712 61.215 204.981 60.9469C205.25 60.6788 205.615 60.528 205.995 60.5276H217.646C218.027 60.528 218.391 60.6788 218.66 60.9469C218.929 61.215 219.081 61.5785 219.081 61.9576V75.6603C219.081 76.0395 218.929 76.4029 218.66 76.671C218.391 76.9391 218.027 77.0899 217.646 77.0903Z" fill="#AB60B8"/>
<path d="M266.432 62.1546H254.781C254.4 62.1542 254.036 62.0034 253.767 61.7353C253.498 61.4672 253.346 61.1037 253.346 60.7246V47.0218C253.346 46.6427 253.498 46.2792 253.767 46.0111C254.036 45.743 254.4 45.5922 254.781 45.5918H266.432C266.812 45.5922 267.177 45.743 267.446 46.0111C267.715 46.2792 267.866 46.6427 267.867 47.0218V60.7246C267.866 61.1037 267.715 61.4672 267.446 61.7353C267.177 62.0034 266.812 62.1542 266.432 62.1546Z" fill="#AB60B8"/>
<path d="M311.391 62.1546H299.74C299.36 62.1542 298.995 62.0034 298.726 61.7353C298.457 61.4672 298.305 61.1037 298.305 60.7246V47.0218C298.305 46.6427 298.457 46.2792 298.726 46.0111C298.995 45.743 299.36 45.5922 299.74 45.5918H311.391C311.771 45.5922 312.136 45.743 312.405 46.0111C312.674 46.2792 312.825 46.6427 312.826 47.0218V60.7246C312.825 61.1037 312.674 61.4672 312.405 61.7353C312.136 62.0034 311.771 62.1542 311.391 62.1546Z" fill="#AB60B8"/>
<path d="M332.117 65.968H320.466C320.085 65.9676 319.721 65.8168 319.452 65.5487C319.183 65.2806 319.031 64.9171 319.031 64.538V50.8353C319.031 50.4562 319.183 50.0927 319.452 49.8246C319.721 49.5565 320.085 49.4057 320.466 49.4053H332.117C332.497 49.4057 332.862 49.5565 333.131 49.8246C333.4 50.0927 333.551 50.4562 333.552 50.8353V64.538C333.551 64.9171 333.4 65.2806 333.131 65.5487C332.862 65.8168 332.497 65.9676 332.117 65.968Z" fill="#E6E6E6"/>
<path d="M322.87 90.4373H311.219C310.839 90.4369 310.474 90.2861 310.205 90.018C309.936 89.7499 309.784 89.3864 309.784 89.0073V75.3045C309.784 74.9254 309.936 74.5619 310.205 74.2938C310.474 74.0257 310.839 73.8749 311.219 73.8745H322.87C323.25 73.8749 323.615 74.0257 323.884 74.2938C324.153 74.5619 324.305 74.9254 324.305 75.3045V89.0073C324.305 89.3864 324.153 89.7499 323.884 90.018C323.615 90.2861 323.25 90.4369 322.87 90.4373Z" fill="#E6E6E6"/>
<path d="M283.331 85.3528H271.68C271.3 85.3524 270.935 85.2016 270.666 84.9335C270.397 84.6654 270.246 84.3019 270.245 83.9228V70.2201C270.246 69.8409 270.397 69.4774 270.666 69.2094C270.935 68.9413 271.3 68.7905 271.68 68.79H283.331C283.712 68.7905 284.077 68.9413 284.346 69.2094C284.615 69.4774 284.766 69.8409 284.766 70.2201V83.9228C284.766 84.302 284.615 84.6654 284.346 84.9335C284.077 85.2016 283.712 85.3524 283.331 85.3528Z" fill="#FF6584"/>
<path d="M260.692 90.4373H249.041C248.661 90.4369 248.296 90.2861 248.027 90.018C247.758 89.7499 247.607 89.3864 247.606 89.0073V75.3045C247.607 74.9254 247.758 74.5619 248.027 74.2938C248.296 74.0257 248.661 73.8749 249.041 73.8745H260.692C261.073 73.8749 261.437 74.0257 261.706 74.2938C261.975 74.5619 262.127 74.9254 262.127 75.3045V89.0073C262.127 89.3864 261.975 89.7499 261.706 90.018C261.437 90.2861 261.073 90.4369 260.692 90.4373Z" fill="#E6E6E6"/>
<path d="M211.907 112.047H200.256C199.875 112.046 199.51 111.895 199.241 111.627C198.972 111.359 198.821 110.996 198.821 110.617V96.9139C198.821 96.5348 198.972 96.1713 199.241 95.9032C199.51 95.6351 199.875 95.4843 200.256 95.4839H211.907C212.287 95.4843 212.652 95.6351 212.921 95.9032C213.19 96.1713 213.341 96.5348 213.342 96.9139V110.617C213.341 110.996 213.19 111.359 212.921 111.627C212.652 111.895 212.287 112.046 211.907 112.047Z" fill="#E6E6E6"/>
<path d="M152.917 93.9329H141.266C140.886 93.9325 140.521 93.7817 140.252 93.5136C139.983 93.2455 139.832 92.882 139.831 92.5029V78.8001C139.832 78.421 139.983 78.0575 140.252 77.7894C140.521 77.5213 140.886 77.3705 141.266 77.3701H152.917C153.298 77.3705 153.663 77.5213 153.932 77.7894C154.201 78.0575 154.352 78.421 154.352 78.8001V92.5029C154.352 92.882 154.201 93.2455 153.932 93.5136C153.663 93.7817 153.298 93.9325 152.917 93.9329Z" fill="#FF6584"/>
<path d="M185.76 68.8282H174.109C173.728 68.8277 173.364 68.6769 173.095 68.4088C172.826 68.1408 172.674 67.7773 172.674 67.3981V53.6954C172.674 53.3163 172.826 52.9528 173.095 52.6847C173.364 52.4166 173.728 52.2658 174.109 52.2654H185.76C186.14 52.2658 186.505 52.4166 186.774 52.6847C187.043 52.9528 187.194 53.3163 187.195 53.6954V67.3981C187.194 67.7773 187.043 68.1408 186.774 68.4088C186.505 68.6769 186.14 68.8277 185.76 68.8282Z" fill="#E6E6E6"/>
<path d="M176.221 30.825H158.046C157.708 30.825 157.383 30.6911 157.144 30.4527C156.905 30.2143 156.771 29.891 156.771 29.5539C156.771 29.2167 156.905 28.8934 157.144 28.655C157.383 28.4166 157.708 28.2827 158.046 28.2827H176.221C176.559 28.2827 176.884 28.4166 177.123 28.655C177.362 28.8934 177.497 29.2167 177.497 29.5539C177.497 29.891 177.362 30.2143 177.123 30.4527C176.884 30.6911 176.559 30.825 176.221 30.825Z" fill="#CCCCCC"/>
<path d="M227.558 30.825H209.383C209.044 30.825 208.72 30.6911 208.481 30.4527C208.242 30.2143 208.107 29.891 208.107 29.5539C208.107 29.2167 208.242 28.8934 208.481 28.655C208.72 28.4166 209.044 28.2827 209.383 28.2827H227.558C227.896 28.2827 228.22 28.4166 228.459 28.655C228.699 28.8934 228.833 29.2167 228.833 29.5539C228.833 29.891 228.699 30.2143 228.459 30.4527C228.22 30.6911 227.896 30.825 227.558 30.825Z" fill="#CCCCCC"/>
<path d="M275.706 30.825H257.531C257.192 30.825 256.868 30.6911 256.629 30.4527C256.39 30.2143 256.255 29.891 256.255 29.5539C256.255 29.2167 256.39 28.8934 256.629 28.655C256.868 28.4166 257.192 28.2827 257.531 28.2827H275.706C276.044 28.2827 276.368 28.4166 276.607 28.655C276.847 28.8934 276.981 29.2167 276.981 29.5539C276.981 29.891 276.847 30.2143 276.607 30.4527C276.368 30.6911 276.044 30.825 275.706 30.825Z" fill="#CCCCCC"/>
<path d="M320.665 30.825H302.49C302.152 30.825 301.827 30.6911 301.588 30.4527C301.349 30.2143 301.214 29.891 301.214 29.5539C301.214 29.2167 301.349 28.8934 301.588 28.655C301.827 28.4166 302.152 28.2827 302.49 28.2827H320.665C321.003 28.2827 321.327 28.4166 321.567 28.655C321.806 28.8934 321.94 29.2167 321.94 29.5539C321.94 29.891 321.806 30.2143 321.567 30.4527C321.327 30.6911 321.003 30.825 320.665 30.825Z" fill="#CCCCCC"/>
<path d="M135.513 123.901C135.047 123.856 134.596 123.709 134.192 123.471C133.789 123.233 133.443 122.91 133.178 122.524C132.914 122.138 132.737 121.7 132.662 121.239C132.586 120.778 132.612 120.306 132.739 119.856L124.566 112.273L128.887 111.181L136.924 117.677C137.668 117.94 138.29 118.465 138.671 119.154C139.052 119.843 139.167 120.647 138.993 121.414C138.819 122.181 138.368 122.858 137.727 123.317C137.086 123.775 136.298 123.983 135.513 123.901Z" fill="#FFB8B8"/>
<path d="M146.799 179.946H150.708L152.568 164.919H146.799L146.799 179.946Z" fill="#FFB8B8"/>
<path d="M158.247 183.563L145.961 183.564L145.961 178.833L153.5 178.833C154.759 178.833 155.967 179.331 156.857 180.218C157.747 181.106 158.247 182.309 158.247 183.563L158.247 183.563Z" fill="#2F2E41"/>
<path d="M119.996 177.133L123.774 178.135L129.45 164.091L123.875 162.612L119.996 177.133Z" fill="#FFB8B8"/>
<path d="M130.126 183.565L118.253 180.415L119.474 175.844L126.759 177.776C127.976 178.099 129.014 178.89 129.645 179.976C130.277 181.061 130.449 182.352 130.126 183.565Z" fill="#2F2E41"/>
<path d="M151.76 177.101H145.795C145.418 177.102 145.054 176.963 144.775 176.711C144.496 176.458 144.322 176.111 144.288 175.737L140.666 138.26C140.64 137.985 140.518 137.728 140.323 137.533C140.127 137.337 139.869 137.216 139.593 137.189C139.317 137.162 139.041 137.232 138.811 137.386C138.581 137.54 138.411 137.768 138.332 138.033L127.818 173.053C127.707 173.425 127.456 173.74 127.117 173.932C126.779 174.124 126.379 174.179 126.001 174.084L120.451 172.701C120.258 172.653 120.076 172.567 119.915 172.448C119.755 172.33 119.62 172.181 119.518 172.01C119.416 171.839 119.349 171.649 119.32 171.452C119.292 171.255 119.303 171.055 119.352 170.862C119.443 170.509 128.411 135.579 128.49 135.22C130.522 120.294 132.953 116.295 134.259 114.146C134.367 113.969 134.466 113.805 134.556 113.65C134.668 113.457 135.357 111.539 135.794 110.293C135.851 110.091 135.949 109.902 136.083 109.739C136.216 109.576 136.382 109.443 136.57 109.347C142.058 106.55 148.479 108.486 150.316 109.146C150.621 109.253 150.882 109.456 151.062 109.723C156.573 118.008 153.868 166.127 153.27 175.689C153.245 176.072 153.075 176.43 152.795 176.693C152.514 176.955 152.144 177.101 151.76 177.101Z" fill="#2F2E41"/>
<path d="M136.366 82.1744C140.691 82.1744 144.197 78.68 144.197 74.3693C144.197 70.0587 140.691 66.5642 136.366 66.5642C132.041 66.5642 128.534 70.0587 128.534 74.3693C128.534 78.68 132.041 82.1744 136.366 82.1744Z" fill="#FFB8B8"/>
<path d="M135.536 111.809L135.48 111.754C135.374 111.652 124.94 101.464 126.29 92.0439C126.868 88.0145 130.139 85.4399 135.75 84.598C137.811 84.2929 139.914 84.7395 141.671 85.8559C143.429 86.9722 144.723 88.6832 145.316 90.6744L150.864 109.578L135.536 111.809Z" fill="#CCCCCC"/>
<path d="M130.196 119.055L122.76 111.692C122.252 111.185 121.883 110.557 121.688 109.867C121.494 109.178 121.481 108.45 121.651 107.754L125.25 93.1614C125.358 92.7241 125.555 92.3136 125.828 91.9552C126.102 91.5967 126.446 91.298 126.84 91.0776C127.234 90.8571 127.669 90.7196 128.118 90.6735C128.568 90.6274 129.022 90.6738 129.453 90.8097C130.274 91.0734 130.96 91.6453 131.365 92.4042C131.77 93.1631 131.863 94.0494 131.624 94.8754L127.834 107.713L133.962 114.271L130.196 119.055Z" fill="#CCCCCC"/>
<path d="M170.076 93.9249C169.879 94.349 169.592 94.725 169.234 95.0264C168.876 95.3277 168.456 95.5472 168.003 95.6693C167.551 95.7913 167.077 95.813 166.615 95.7328C166.153 95.6526 165.715 95.4725 165.33 95.2052L155.404 100.332L155.843 95.977L164.643 90.5496C165.136 89.9358 165.838 89.5237 166.616 89.3915C167.394 89.2592 168.194 89.416 168.864 89.832C169.533 90.2481 170.027 90.8945 170.25 91.6489C170.474 92.4032 170.412 93.213 170.076 93.9249H170.076Z" fill="#FFB8B8"/>
<path d="M164.246 97.1671L154.57 101.334C153.926 101.61 153.222 101.715 152.525 101.64C151.828 101.566 151.163 101.314 150.592 100.909L138.287 92.1226C137.92 91.8603 137.611 91.5258 137.378 91.1396C137.146 90.7534 136.996 90.3238 136.937 89.8774C136.878 89.431 136.911 88.9773 137.035 88.5443C137.159 88.1114 137.371 87.7084 137.658 87.3603C138.209 86.6986 138.996 86.2765 139.854 86.1835C140.711 86.0905 141.572 86.3339 142.252 86.862L152.803 95.1378L161.189 91.9043L164.246 97.1671Z" fill="#CCCCCC"/>
<path d="M137.664 76.8702C138.63 75.6638 140.435 75.5989 141.763 74.8031C143.501 73.7606 144.22 71.4312 143.659 69.4878C143.099 67.5445 141.447 66.03 139.553 65.3057C137.659 64.5814 135.552 64.5724 133.553 64.9226C130.578 65.4439 127.649 66.8277 125.835 69.2346C124.02 71.6414 123.559 75.1663 125.203 77.6916C125.959 78.8522 127.126 79.8103 127.427 81.1608C127.823 82.9339 126.575 84.644 125.239 85.8787C123.715 87.2853 121.968 88.4633 120.634 90.0489C119.299 91.6345 118.409 93.8008 119.018 95.7793C119.528 97.4369 121.013 98.6582 122.641 99.2698C124.269 99.8814 126.042 99.9698 127.781 100.004C129.47 100.037 131.264 99.9957 132.687 99.088C134.211 98.1164 135.024 96.273 135.084 94.4716C135.144 92.6701 134.54 90.9052 133.731 89.2934C133.248 88.3327 132.687 87.4018 132.366 86.3761C132.046 85.3504 131.99 84.1865 132.504 83.2419C133.043 82.2489 134.135 81.6501 135.247 81.4324C135.305 81.421 135.366 81.4109 135.43 81.4019C135.746 81.361 136.051 81.2566 136.326 81.095C136.601 80.9334 136.84 80.7179 137.028 80.4616C137.217 80.2053 137.352 79.9136 137.424 79.6039C137.496 79.2943 137.505 78.9733 137.449 78.6602C137.323 77.9565 137.334 77.283 137.664 76.8702Z" fill="#2F2E41"/>
<path d="M242.083 180.279H238.173L236.314 165.252L242.083 165.252L242.083 180.279Z" fill="#A0616A"/>
<path d="M235.381 179.166H242.92V183.896H230.634C230.634 183.275 230.757 182.66 230.996 182.086C231.234 181.512 231.584 180.99 232.025 180.551C232.465 180.112 232.989 179.763 233.565 179.526C234.141 179.288 234.758 179.166 235.381 179.166Z" fill="#2F2E41"/>
<path d="M270.447 175.866L266.891 177.484L258.934 164.586L264.182 162.197L270.447 175.866Z" fill="#A0616A"/>
<path d="M263.887 177.628L270.745 174.506L272.717 178.81L261.541 183.897C261.282 183.332 261.138 182.721 261.115 182.1C261.093 181.479 261.194 180.86 261.412 180.278C261.629 179.696 261.96 179.162 262.385 178.708C262.81 178.253 263.32 177.886 263.887 177.628Z" fill="#2F2E41"/>
<path d="M259.063 129.611C259.437 129.33 259.745 128.97 259.965 128.558C260.185 128.145 260.312 127.69 260.337 127.223C260.361 126.757 260.282 126.291 260.106 125.858C259.93 125.425 259.661 125.035 259.318 124.717L263.913 114.326L258.075 115.312L254.607 125.028C254.109 125.639 253.852 126.41 253.887 127.195C253.921 127.981 254.243 128.727 254.792 129.292C255.342 129.857 256.08 130.201 256.867 130.26C257.654 130.319 258.435 130.088 259.063 129.611Z" fill="#A0616A"/>
<path d="M241.833 176.317H238.099C237.737 176.315 237.388 176.178 237.123 175.932C236.858 175.687 236.695 175.35 236.668 174.99L234.631 120.789C234.616 120.582 234.647 120.373 234.721 120.179C234.795 119.984 234.911 119.808 235.06 119.662C235.21 119.517 235.39 119.406 235.587 119.337C235.784 119.268 235.994 119.242 236.202 119.263L257.8 121.549C258.15 121.583 258.475 121.744 258.714 122.001C258.953 122.258 259.088 122.594 259.095 122.945L259.548 146.853C259.55 146.983 259.575 147.111 259.622 147.233L268.482 170.13C268.55 170.307 268.583 170.495 268.577 170.685C268.572 170.874 268.529 171.061 268.45 171.234C268.372 171.406 268.26 171.562 268.12 171.691C267.981 171.82 267.817 171.92 267.639 171.986L263.855 173.376C263.526 173.496 263.164 173.493 262.838 173.366C262.511 173.24 262.243 172.998 262.083 172.688L251.199 151.597C251.14 151.482 251.096 151.36 251.07 151.234L249.211 142.306C249.157 142.047 249.012 141.816 248.803 141.654C248.593 141.492 248.333 141.409 248.068 141.421C247.803 141.433 247.551 141.539 247.357 141.719C247.163 141.899 247.04 142.143 247.009 142.405L243.259 175.049C243.219 175.398 243.052 175.72 242.789 175.954C242.526 176.188 242.186 176.317 241.833 176.317Z" fill="#2F2E41"/>
<path d="M243.693 78.4097C248.018 78.4097 251.525 74.9153 251.525 70.6047C251.525 66.294 248.018 62.7996 243.693 62.7996C239.368 62.7996 235.861 66.294 235.861 70.6047C235.861 74.9153 239.368 78.4097 243.693 78.4097Z" fill="#A0616A"/>
<path d="M249.064 125.745C243.753 125.687 238.569 124.122 234.118 121.233L234.042 121.181L234.049 121.089L237.045 86.3183C237.148 85.1386 237.677 84.0362 238.533 83.2147C239.388 82.3932 240.514 81.9084 241.7 81.8498C245.583 81.6719 250.798 81.8961 253.589 83.9683C257.808 87.0999 259.841 91.8156 259.168 96.906C257.771 107.462 259.353 121.702 259.538 123.291L259.552 123.406L259.447 123.454C256.194 124.962 252.651 125.744 249.064 125.745Z" fill="#AB60B8"/>
<path d="M259.502 123.35C259.281 123.35 259.063 123.304 258.861 123.215C258.659 123.127 258.478 122.997 258.329 122.835L256.616 120.972C256.43 120.77 256.301 120.523 256.239 120.256C256.177 119.99 256.185 119.711 256.262 119.449L260.168 106.272L254.225 93.8328C253.947 93.2505 253.879 92.5907 254.032 91.9644C254.167 91.4146 254.466 90.9184 254.889 90.5414C255.313 90.1644 255.841 89.9241 256.405 89.8524C256.968 89.7807 257.54 89.8808 258.045 90.1396C258.55 90.3985 258.965 90.8038 259.234 91.3021L267.299 104.345C267.627 104.874 267.819 105.475 267.859 106.095C267.899 106.716 267.786 107.337 267.529 107.903L260.957 122.415C260.849 122.655 260.682 122.864 260.473 123.024C260.263 123.184 260.017 123.289 259.756 123.33C259.672 123.343 259.587 123.35 259.502 123.35Z" fill="#AB60B8"/>
<path d="M204.3 98.1802C204.677 98.459 205.109 98.6522 205.569 98.7462C206.028 98.8403 206.502 98.8328 206.958 98.7244C207.414 98.616 207.841 98.4093 208.208 98.1189C208.575 97.8284 208.874 97.4612 209.083 97.0432L220.383 98.5038L217.786 93.2005L207.453 92.6265C206.726 92.3226 205.911 92.2953 205.164 92.5499C204.418 92.8044 203.791 93.3231 203.402 94.0076C203.013 94.6922 202.89 95.495 203.056 96.264C203.221 97.0331 203.664 97.7148 204.3 98.1802V98.1802Z" fill="#A0616A"/>
<path d="M229.207 101.077C229.01 101.077 228.814 101.063 228.619 101.036L210.842 98.5789C210.552 98.5391 210.276 98.4279 210.039 98.2553C209.802 98.0827 209.613 97.8541 209.487 97.5902C209.446 97.5051 209.412 97.417 209.385 97.3267H209.385C209.317 97.0921 209.297 96.8458 209.329 96.6034C209.36 96.361 209.442 96.1277 209.569 95.9184L211.04 93.4877C211.198 93.2279 211.421 93.013 211.686 92.8635C211.952 92.714 212.251 92.635 212.556 92.6341H212.559L228.054 92.6518L239.627 82.3184C240.165 81.8388 240.853 81.5583 241.574 81.5241C242.207 81.4949 242.835 81.6576 243.373 81.9909C243.912 82.3243 244.336 82.8125 244.591 83.3912C244.846 83.9699 244.918 84.6119 244.799 85.2325C244.68 85.8532 244.375 86.4233 243.925 86.8678L232.377 99.6675C231.978 100.111 231.489 100.466 230.943 100.708C230.396 100.951 229.805 101.077 229.207 101.077Z" fill="#AB60B8"/>
<path d="M244.583 77.5483C245.299 75.8975 245.905 73.6991 244.532 72.532C243.736 71.855 242.589 71.8536 241.546 71.7694C238.607 71.5321 235.581 70.1844 234.145 67.618C232.708 65.0517 233.51 61.2355 236.22 60.0777C238.047 59.2972 240.142 59.8289 242.054 60.3693L247.795 61.9919C249.501 62.474 251.292 63.0057 252.52 64.2804C254.479 66.3133 254.333 69.75 252.777 72.1036C251.221 74.4572 248.878 76.9119 246.196 77.8055L244.583 77.5483Z" fill="#2F2E41"/>
<path d="M323.792 184H88.3795C88.3296 184 88.2801 183.99 88.2339 183.971C88.1877 183.953 88.1457 183.925 88.1104 183.89C88.075 183.854 88.0469 183.813 88.0278 183.767C88.0086 183.721 87.9988 183.671 87.9988 183.622C87.9988 183.572 88.0086 183.522 88.0278 183.477C88.0469 183.431 88.075 183.389 88.1104 183.354C88.1457 183.318 88.1877 183.291 88.2339 183.272C88.2801 183.253 88.3296 183.243 88.3795 183.243H323.792C323.842 183.243 323.892 183.253 323.938 183.272C323.984 183.291 324.026 183.318 324.061 183.354C324.097 183.389 324.125 183.431 324.144 183.477C324.163 183.522 324.173 183.572 324.173 183.622C324.173 183.671 324.163 183.721 324.144 183.767C324.125 183.813 324.097 183.854 324.061 183.89C324.026 183.925 323.984 183.953 323.938 183.971C323.892 183.99 323.842 184 323.792 184Z" fill="#3F3D56"/>
</g>
<path d="M1 166H433V219C433 230.046 424.046 239 413 239H21C9.95431 239 1 230.046 1 219V166Z" fill="#AB60B8"/>
<path d="M85.94 210.21C84.56 210.21 83.32 209.97 82.22 209.49C81.14 208.99 80.29 208.31 79.67 207.45C79.05 206.57 78.73 205.56 78.71 204.42H81.62C81.72 205.4 82.12 206.23 82.82 206.91C83.54 207.57 84.58 207.9 85.94 207.9C87.24 207.9 88.26 207.58 89 206.94C89.76 206.28 90.14 205.44 90.14 204.42C90.14 203.62 89.92 202.97 89.48 202.47C89.04 201.97 88.49 201.59 87.83 201.33C87.17 201.07 86.28 200.79 85.16 200.49C83.78 200.13 82.67 199.77 81.83 199.41C81.01 199.05 80.3 198.49 79.7 197.73C79.12 196.95 78.83 195.91 78.83 194.61C78.83 193.47 79.12 192.46 79.7 191.58C80.28 190.7 81.09 190.02 82.13 189.54C83.19 189.06 84.4 188.82 85.76 188.82C87.72 188.82 89.32 189.31 90.56 190.29C91.82 191.27 92.53 192.57 92.69 194.19H89.69C89.59 193.39 89.17 192.69 88.43 192.09C87.69 191.47 86.71 191.16 85.49 191.16C84.35 191.16 83.42 191.46 82.7 192.06C81.98 192.64 81.62 193.46 81.62 194.52C81.62 195.28 81.83 195.9 82.25 196.38C82.69 196.86 83.22 197.23 83.84 197.49C84.48 197.73 85.37 198.01 86.51 198.33C87.89 198.71 89 199.09 89.84 199.47C90.68 199.83 91.4 200.4 92 201.18C92.6 201.94 92.9 202.98 92.9 204.3C92.9 205.32 92.63 206.28 92.09 207.18C91.55 208.08 90.75 208.81 89.69 209.37C88.63 209.93 87.38 210.21 85.94 210.21ZM100.247 195.81V205.5C100.247 206.3 100.417 206.87 100.757 207.21C101.097 207.53 101.687 207.69 102.527 207.69H104.537V210H102.077C100.557 210 99.4174 209.65 98.6574 208.95C97.8974 208.25 97.5174 207.1 97.5174 205.5V195.81H95.3874V193.56H97.5174V189.42H100.247V193.56H104.537V195.81H100.247ZM122.425 193.56V210H119.695V207.57C119.175 208.41 118.445 209.07 117.505 209.55C116.585 210.01 115.565 210.24 114.445 210.24C113.165 210.24 112.015 209.98 110.995 209.46C109.975 208.92 109.165 208.12 108.565 207.06C107.985 206 107.695 204.71 107.695 203.19V193.56H110.395V202.83C110.395 204.45 110.805 205.7 111.625 206.58C112.445 207.44 113.565 207.87 114.985 207.87C116.445 207.87 117.595 207.42 118.435 206.52C119.275 205.62 119.695 204.31 119.695 202.59V193.56H122.425ZM126.015 201.72C126.015 200.04 126.355 198.57 127.035 197.31C127.715 196.03 128.645 195.04 129.825 194.34C131.025 193.64 132.365 193.29 133.845 193.29C135.125 193.29 136.315 193.59 137.415 194.19C138.515 194.77 139.355 195.54 139.935 196.5V187.8H142.695V210H139.935V206.91C139.395 207.89 138.595 208.7 137.535 209.34C136.475 209.96 135.235 210.27 133.815 210.27C132.355 210.27 131.025 209.91 129.825 209.19C128.645 208.47 127.715 207.46 127.035 206.16C126.355 204.86 126.015 203.38 126.015 201.72ZM139.935 201.75C139.935 200.51 139.685 199.43 139.185 198.51C138.685 197.59 138.005 196.89 137.145 196.41C136.305 195.91 135.375 195.66 134.355 195.66C133.335 195.66 132.405 195.9 131.565 196.38C130.725 196.86 130.055 197.56 129.555 198.48C129.055 199.4 128.805 200.48 128.805 201.72C128.805 202.98 129.055 204.08 129.555 205.02C130.055 205.94 130.725 206.65 131.565 207.15C132.405 207.63 133.335 207.87 134.355 207.87C135.375 207.87 136.305 207.63 137.145 207.15C138.005 206.65 138.685 205.94 139.185 205.02C139.685 204.08 139.935 202.99 139.935 201.75ZM162.308 201.15C162.308 201.67 162.278 202.22 162.218 202.8H149.078C149.178 204.42 149.728 205.69 150.728 206.61C151.748 207.51 152.978 207.96 154.418 207.96C155.598 207.96 156.578 207.69 157.358 207.15C158.158 206.59 158.718 205.85 159.038 204.93H161.978C161.538 206.51 160.658 207.8 159.338 208.8C158.018 209.78 156.378 210.27 154.418 210.27C152.858 210.27 151.458 209.92 150.218 209.22C148.998 208.52 148.038 207.53 147.338 206.25C146.638 204.95 146.288 203.45 146.288 201.75C146.288 200.05 146.628 198.56 147.308 197.28C147.988 196 148.938 195.02 150.158 194.34C151.398 193.64 152.818 193.29 154.418 193.29C155.978 193.29 157.358 193.63 158.558 194.31C159.758 194.99 160.678 195.93 161.318 197.13C161.978 198.31 162.308 199.65 162.308 201.15ZM159.488 200.58C159.488 199.54 159.258 198.65 158.798 197.91C158.338 197.15 157.708 196.58 156.908 196.2C156.128 195.8 155.258 195.6 154.298 195.6C152.918 195.6 151.738 196.04 150.758 196.92C149.798 197.8 149.248 199.02 149.108 200.58H159.488ZM173.922 193.26C175.922 193.26 177.542 193.87 178.782 195.09C180.022 196.29 180.642 198.03 180.642 200.31V210H177.942V200.7C177.942 199.06 177.532 197.81 176.712 196.95C175.892 196.07 174.772 195.63 173.352 195.63C171.912 195.63 170.762 196.08 169.902 196.98C169.062 197.88 168.642 199.19 168.642 200.91V210H165.912V193.56H168.642V195.9C169.182 195.06 169.912 194.41 170.832 193.95C171.772 193.49 172.802 193.26 173.922 193.26ZM188.431 195.81V205.5C188.431 206.3 188.601 206.87 188.941 207.21C189.281 207.53 189.871 207.69 190.711 207.69H192.721V210H190.261C188.741 210 187.601 209.65 186.841 208.95C186.081 208.25 185.701 207.1 185.701 205.5V195.81H183.571V193.56H185.701V189.42H188.431V193.56H192.721V195.81H188.431ZM206.757 191.31V198.3H214.377V200.55H206.757V207.75H215.277V210H204.027V189.06H215.277V191.31H206.757ZM227.418 193.26C229.418 193.26 231.038 193.87 232.278 195.09C233.518 196.29 234.138 198.03 234.138 200.31V210H231.438V200.7C231.438 199.06 231.028 197.81 230.208 196.95C229.388 196.07 228.268 195.63 226.848 195.63C225.408 195.63 224.258 196.08 223.398 196.98C222.558 197.88 222.138 199.19 222.138 200.91V210H219.408V193.56H222.138V195.9C222.678 195.06 223.408 194.41 224.328 193.95C225.268 193.49 226.298 193.26 227.418 193.26ZM241.327 196.23C241.807 195.29 242.487 194.56 243.367 194.04C244.267 193.52 245.357 193.26 246.637 193.26V196.08H245.917C242.857 196.08 241.327 197.74 241.327 201.06V210H238.597V193.56H241.327V196.23ZM256.959 210.27C255.419 210.27 254.019 209.92 252.759 209.22C251.519 208.52 250.539 207.53 249.819 206.25C249.119 204.95 248.769 203.45 248.769 201.75C248.769 200.07 249.129 198.59 249.849 197.31C250.589 196.01 251.589 195.02 252.849 194.34C254.109 193.64 255.519 193.29 257.079 193.29C258.639 193.29 260.049 193.64 261.309 194.34C262.569 195.02 263.559 196 264.279 197.28C265.019 198.56 265.389 200.05 265.389 201.75C265.389 203.45 265.009 204.95 264.249 206.25C263.509 207.53 262.499 208.52 261.219 209.22C259.939 209.92 258.519 210.27 256.959 210.27ZM256.959 207.87C257.939 207.87 258.859 207.64 259.719 207.18C260.579 206.72 261.269 206.03 261.789 205.11C262.329 204.19 262.599 203.07 262.599 201.75C262.599 200.43 262.339 199.31 261.819 198.39C261.299 197.47 260.619 196.79 259.779 196.35C258.939 195.89 258.029 195.66 257.049 195.66C256.049 195.66 255.129 195.89 254.289 196.35C253.469 196.79 252.809 197.47 252.309 198.39C251.809 199.31 251.559 200.43 251.559 201.75C251.559 203.09 251.799 204.22 252.279 205.14C252.779 206.06 253.439 206.75 254.259 207.21C255.079 207.65 255.979 207.87 256.959 207.87ZM271.708 187.8V210H268.978V187.8H271.708ZM279.091 187.8V210H276.361V187.8H279.091ZM303.514 193.26C304.794 193.26 305.934 193.53 306.934 194.07C307.934 194.59 308.724 195.38 309.304 196.44C309.884 197.5 310.174 198.79 310.174 200.31V210H307.474V200.7C307.474 199.06 307.064 197.81 306.244 196.95C305.444 196.07 304.354 195.63 302.974 195.63C301.554 195.63 300.424 196.09 299.584 197.01C298.744 197.91 298.324 199.22 298.324 200.94V210H295.624V200.7C295.624 199.06 295.214 197.81 294.394 196.95C293.594 196.07 292.504 195.63 291.124 195.63C289.704 195.63 288.574 196.09 287.734 197.01C286.894 197.91 286.474 199.22 286.474 200.94V210H283.744V193.56H286.474V195.93C287.014 195.07 287.734 194.41 288.634 193.95C289.554 193.49 290.564 193.26 291.664 193.26C293.044 193.26 294.264 193.57 295.324 194.19C296.384 194.81 297.174 195.72 297.694 196.92C298.154 195.76 298.914 194.86 299.974 194.22C301.034 193.58 302.214 193.26 303.514 193.26ZM329.652 201.15C329.652 201.67 329.622 202.22 329.562 202.8H316.422C316.522 204.42 317.072 205.69 318.072 206.61C319.092 207.51 320.322 207.96 321.762 207.96C322.942 207.96 323.922 207.69 324.702 207.15C325.502 206.59 326.062 205.85 326.382 204.93H329.322C328.882 206.51 328.002 207.8 326.682 208.8C325.362 209.78 323.722 210.27 321.762 210.27C320.202 210.27 318.802 209.92 317.562 209.22C316.342 208.52 315.382 207.53 314.682 206.25C313.982 204.95 313.632 203.45 313.632 201.75C313.632 200.05 313.972 198.56 314.652 197.28C315.332 196 316.282 195.02 317.502 194.34C318.742 193.64 320.162 193.29 321.762 193.29C323.322 193.29 324.702 193.63 325.902 194.31C327.102 194.99 328.022 195.93 328.662 197.13C329.322 198.31 329.652 199.65 329.652 201.15ZM326.832 200.58C326.832 199.54 326.602 198.65 326.142 197.91C325.682 197.15 325.052 196.58 324.252 196.2C323.472 195.8 322.602 195.6 321.642 195.6C320.262 195.6 319.082 196.04 318.102 196.92C317.142 197.8 316.592 199.02 316.452 200.58H326.832ZM341.265 193.26C343.265 193.26 344.885 193.87 346.125 195.09C347.365 196.29 347.985 198.03 347.985 200.31V210H345.285V200.7C345.285 199.06 344.875 197.81 344.055 196.95C343.235 196.07 342.115 195.63 340.695 195.63C339.255 195.63 338.105 196.08 337.245 196.98C336.405 197.88 335.985 199.19 335.985 200.91V210H333.255V193.56H335.985V195.9C336.525 195.06 337.255 194.41 338.175 193.95C339.115 193.49 340.145 193.26 341.265 193.26ZM355.775 195.81V205.5C355.775 206.3 355.945 206.87 356.285 207.21C356.625 207.53 357.215 207.69 358.055 207.69H360.065V210H357.605C356.085 210 354.945 209.65 354.185 208.95C353.425 208.25 353.045 207.1 353.045 205.5V195.81H350.915V193.56H353.045V189.42H355.775V193.56H360.065V195.81H355.775Z" fill="white"/>
<defs>
<clipPath id="clip0">
<rect width="262" height="184" fill="white" transform="translate(88)"/>
</clipPath>
</defs>
</svg>
